<svg width="0" height="0" class="hidden">
  <symbol xmlns="http://www.w3.org/2000/svg" viewBox="0 0 477.867 477.867" id="chat">
    <path d="M426.667.002H51.2C22.923.002 0 22.925 0 51.202v273.067c0 28.277 22.923 51.2 51.2 51.2h60.587l-9.284 83.456c-1.035 9.369 5.721 17.802 15.09 18.837a17.07 17.07 0 0013.292-4.279l108.919-98.014h186.863c28.277 0 51.2-22.923 51.2-51.2V51.202c0-28.277-22.923-51.2-51.2-51.2zm17.066 324.267c0 9.426-7.641 17.067-17.067 17.067H233.25a17.07 17.07 0 00-11.418 4.386l-80.452 72.414 6.434-57.839c1.046-9.367-5.699-17.809-15.067-18.856-.63-.07-1.263-.106-1.897-.105H51.2c-9.426 0-17.067-7.641-17.067-17.067V51.202c0-9.426 7.641-17.067 17.067-17.067h375.467c9.426 0 17.067 7.641 17.067 17.067v273.067z"></path>
  </symbol>
</svg>