<svg width="0" height="0" class="hidden">
  <symbol version="1.1" id="brandLogo" xmlns="http://www.w3.org/2000/svg" xmlns:xlink="http://www.w3.org/1999/xlink" x="0px" y="0px" xml:space="preserve" viewBox="0 0 417.6 208.8">
    <linearGradient id="SVGID_1_" gradientUnits="userSpaceOnUse" x1="-97.9229" y1="497.4299" x2="-97.2158" y2="496.7228">
      <stop offset="0"></stop>
      <stop offset="0.9831"></stop>
    </linearGradient>
    <g>
      <g>
        <path d="M208.08,7.18c54.23,0,105.14,10.35,143.34,29.14c18.29,9,32.6,19.41,42.53,30.96
			c9.93,11.55,14.97,23.71,14.97,36.15s-5.04,24.6-14.97,36.15c-9.92,11.54-24.23,21.96-42.53,30.96
			c-38.2,18.79-89.11,29.14-143.34,29.14s-105.14-10.35-143.34-29.14c-18.29-9-32.6-19.41-42.53-30.96
			c-9.93-11.55-14.97-23.71-14.97-36.15s5.04-24.6,14.97-36.15c9.92-11.54,24.23-21.96,42.53-30.96
			C102.94,17.53,153.85,7.18,208.08,7.18 M208.08,2.18C94.4,2.18,2.24,47.51,2.24,103.43S94.4,204.68,208.08,204.68
			s205.83-45.33,205.83-101.25S321.76,2.18,208.08,2.18L208.08,2.18z"></path>
      </g>
      <polygon points="153.43,76.82 153.43,50.61 163.84,37.86 174.34,50.61 174.34,76.82 167.68,76.76 167.65,56.51 
		160.46,56.51 160.48,76.82 	"></polygon>
      <polygon points="120.32,48.05 132.12,32.95 132.12,28.64 140.39,28.64 140.39,32.95 154.56,32.95 154.56,28.64 
		162.45,28.64 162.45,35.4 151.5,48.05 	"></polygon>
      <polygon points="213.97,76.84 213.97,50.64 224.38,37.89 234.88,50.64 234.88,76.84 228.22,76.79 228.19,56.54 
		221.01,56.54 221.02,76.84 	"></polygon>
      <polygon points="180.86,48.07 192.66,32.97 192.66,28.66 200.93,28.66 200.93,32.97 215.1,32.97 215.1,28.66 
		222.99,28.66 222.99,35.43 212.04,48.07 	"></polygon>
      <path d="M120.35,76.68h30.32V50.61h-30.32V76.68z M146.31,67.65h-3.37v-3.66h3.37V67.65z M142.94,59.39h3.37v3.65
		h-3.37V59.39z M141.59,67.62h-3.37v-3.65h3.37V67.62z M138.21,59.37h3.37v3.65h-3.37V59.37z M133.24,67.58h-3.37v-3.65h3.37V67.58z
		 M129.86,59.33h3.37v3.65h-3.37V59.33z M128.51,67.56h-3.37V63.9h3.37V67.56z M125.13,59.3h3.37v3.65h-3.37V59.3z"></path>
      <path d="M180.9,76.7h30.32V50.64H180.9V76.7z M206.86,67.67h-3.37v-3.66h3.37V67.67z M203.48,59.42h3.37v3.65h-3.37
		V59.42z M202.13,67.65h-3.37v-3.65h3.37V67.65z M198.75,59.39h3.37v3.66h-3.37V59.39z M193.78,67.61h-3.37v-3.65h3.37V67.61z
		 M190.4,59.35h3.37v3.65h-3.37V59.35z M189.05,67.58h-3.37v-3.65h3.37V67.58z M185.67,59.33h3.37v3.65h-3.37V59.33z"></path>
      <polyline points="185.67,63.98 189.04,63.98 189.04,60.33 185.67,60.33 	"></polyline>
      <path d="M241.8,50.64V76.7h30.32V50.64H241.8z M246.58,59.33h3.37v3.65h-3.37V59.33z M249.96,67.58h-3.37v-3.65h3.37
		V67.58z M251.31,59.35h3.37v3.65h-3.37V59.35z M254.69,67.61h-3.37v-3.65h3.37V67.61z M259.65,59.39h3.37v3.66h-3.37V59.39z
		 M263.03,67.65h-3.37v-3.65h3.37V67.65z M264.38,59.42h3.37v3.65h-3.37V59.42z M267.76,67.67h-3.37v-3.66h3.37V67.67z"></path>
      <polyline points="254.69,64.95 251.32,64.95 251.32,68.61 254.69,68.61 	"></polyline>
      <polygon points="274.87,76.84 274.87,50.64 285.28,37.89 295.79,50.64 295.79,76.84 289.13,76.79 289.09,56.54 
		281.91,56.54 281.92,76.84 	"></polygon>
      <polygon points="241.77,48.07 253.57,32.97 253.57,28.66 261.84,28.66 261.84,32.97 276.01,32.97 276.01,28.66 
		283.89,28.66 283.89,35.43 272.94,48.07 	"></polygon>
      <g>
        <path d="M136.08,158.51c-0.22-0.24-0.54-0.5-0.96-0.78c-0.42-0.28-0.91-0.53-1.47-0.78s-1.18-0.44-1.85-0.59
			c-0.67-0.15-1.36-0.23-2.06-0.23c-1.56,0-2.71,0.29-3.45,0.86c-0.74,0.57-1.11,1.36-1.11,2.38c0,0.57,0.12,1.04,0.35,1.4
			c0.23,0.36,0.59,0.68,1.07,0.96s1.09,0.52,1.82,0.73c0.73,0.21,1.57,0.43,2.54,0.68c1.19,0.29,2.26,0.61,3.22,0.96
			s1.77,0.78,2.43,1.29c0.66,0.51,1.17,1.13,1.53,1.86c0.36,0.74,0.54,1.63,0.54,2.69c0,1.19-0.23,2.21-0.68,3.07
			c-0.45,0.86-1.07,1.56-1.85,2.09c-0.78,0.54-1.69,0.94-2.72,1.19s-2.15,0.38-3.33,0.38c-1.78,0-3.5-0.27-5.16-0.81
			s-3.16-1.33-4.5-2.36l1.68-3.17c0.29,0.29,0.7,0.61,1.24,0.96c0.54,0.35,1.17,0.68,1.88,0.97c0.71,0.3,1.49,0.55,2.33,0.76
			c0.84,0.21,1.7,0.31,2.61,0.31c1.45,0,2.57-0.25,3.37-0.76c0.79-0.51,1.19-1.25,1.19-2.24c0-0.59-0.15-1.09-0.45-1.48
			c-0.3-0.4-0.72-0.74-1.27-1.04c-0.55-0.3-1.22-0.57-2.01-0.81c-0.79-0.24-1.69-0.49-2.71-0.76c-1.17-0.31-2.18-0.63-3.05-0.97
			c-0.87-0.34-1.59-0.75-2.16-1.24c-0.57-0.48-1.01-1.05-1.3-1.7c-0.3-0.65-0.45-1.44-0.45-2.36c0-1.14,0.22-2.16,0.66-3.05
			c0.44-0.89,1.04-1.64,1.8-2.24c0.76-0.6,1.66-1.06,2.69-1.37c1.03-0.31,2.16-0.46,3.37-0.46c1.58,0,3.05,0.25,4.39,0.76
			s2.52,1.13,3.53,1.88L136.08,158.51z"></path>
        <path d="M142.91,156.33v-3.99h3.63v3.99H142.91z M142.91,176.43v-17.26h3.63v17.26H142.91z"></path>
        <path d="M167.36,176.43h-3.63v-9.67c0-1.63-0.26-2.81-0.78-3.55c-0.52-0.74-1.28-1.11-2.29-1.11
			c-0.53,0-1.06,0.1-1.58,0.3c-0.53,0.2-1.02,0.48-1.48,0.84c-0.46,0.36-0.87,0.79-1.24,1.29c-0.36,0.5-0.64,1.04-0.84,1.63v10.26
			h-3.63v-17.26h3.3v3.46c0.66-1.17,1.62-2.08,2.87-2.76c1.25-0.67,2.64-1.01,4.16-1.01c1.03,0,1.88,0.19,2.54,0.56
			c0.66,0.37,1.18,0.89,1.57,1.53c0.38,0.65,0.65,1.4,0.81,2.24c0.15,0.85,0.23,1.74,0.23,2.69V176.43z"></path>
        <path d="M171.45,167.78c0-1.21,0.21-2.35,0.63-3.43c0.42-1.08,1.02-2.02,1.8-2.84c0.78-0.81,1.72-1.46,2.82-1.93
			c1.1-0.47,2.33-0.71,3.7-0.71c1.78,0,3.32,0.39,4.6,1.17c1.29,0.78,2.25,1.82,2.89,3.12l-3.53,1.12c-0.42-0.73-0.98-1.29-1.68-1.7
			c-0.7-0.41-1.48-0.61-2.34-0.61c-0.73,0-1.4,0.14-2.03,0.43c-0.63,0.29-1.17,0.69-1.63,1.21s-0.83,1.13-1.09,1.83
			c-0.26,0.71-0.4,1.49-0.4,2.34c0,0.84,0.14,1.61,0.41,2.33s0.65,1.34,1.12,1.86s1.02,0.94,1.65,1.24c0.63,0.3,1.29,0.45,2,0.45
			c0.44,0,0.88-0.06,1.32-0.18c0.44-0.12,0.84-0.29,1.2-0.51c0.36-0.22,0.68-0.47,0.96-0.76c0.27-0.29,0.48-0.59,0.61-0.92
			l3.56,1.06c-0.57,1.3-1.53,2.36-2.87,3.18c-1.34,0.83-2.93,1.24-4.75,1.24c-1.34,0-2.56-0.24-3.66-0.73
			c-1.1-0.48-2.04-1.14-2.82-1.96c-0.78-0.83-1.39-1.78-1.81-2.85C171.67,170.14,171.45,168.99,171.45,167.78z"></path>
        <path d="M199.67,176.76c-1.34,0-2.56-0.24-3.66-0.71c-1.1-0.47-2.04-1.12-2.82-1.93c-0.78-0.81-1.39-1.76-1.82-2.84
			c-0.43-1.08-0.64-2.22-0.64-3.43s0.21-2.36,0.64-3.45c0.43-1.09,1.03-2.05,1.82-2.87c0.78-0.83,1.72-1.47,2.82-1.95
			c1.1-0.47,2.33-0.71,3.7-0.71c1.34,0,2.56,0.24,3.65,0.73c1.09,0.48,2.02,1.13,2.79,1.93c0.77,0.8,1.36,1.74,1.77,2.8
			c0.41,1.07,0.61,2.18,0.61,3.35c0,0.26-0.01,0.51-0.03,0.74c-0.02,0.23-0.04,0.42-0.07,0.58h-13.83c0.07,0.77,0.25,1.46,0.54,2.08
			c0.3,0.62,0.68,1.15,1.15,1.6s1.01,0.8,1.62,1.04c0.6,0.24,1.24,0.36,1.9,0.36c0.48,0,0.96-0.06,1.44-0.18
			c0.47-0.12,0.91-0.3,1.3-0.53c0.4-0.23,0.75-0.51,1.06-0.84c0.31-0.33,0.55-0.69,0.73-1.09l3.1,0.89
			c-0.59,1.3-1.58,2.36-2.95,3.18C203.09,176.35,201.49,176.76,199.67,176.76z M204.91,166.5c-0.07-0.73-0.25-1.4-0.54-2.01
			c-0.3-0.62-0.68-1.14-1.14-1.57c-0.46-0.43-1-0.76-1.62-1.01c-0.62-0.24-1.27-0.36-1.95-0.36c-0.68,0-1.33,0.12-1.93,0.36
			c-0.61,0.24-1.14,0.58-1.6,1.01s-0.84,0.95-1.12,1.57c-0.29,0.62-0.46,1.29-0.53,2.01H204.91z"></path>
        <path d="M234.18,173.16v3.27h-12.61v-3.27h4.69v-11.52c-0.2,0.26-0.51,0.54-0.92,0.83c-0.42,0.29-0.88,0.55-1.39,0.79
			c-0.51,0.24-1.04,0.45-1.58,0.61s-1.03,0.25-1.45,0.25v-3.4c0.44,0,0.95-0.13,1.53-0.4c0.58-0.26,1.14-0.57,1.68-0.92
			c0.54-0.35,1.01-0.7,1.42-1.06c0.41-0.35,0.64-0.6,0.71-0.76h3.73v15.58H234.18z"></path>
        <path d="M237.09,165.71c0-1.12,0.22-2.18,0.66-3.17c0.44-0.99,1.04-1.85,1.8-2.59c0.76-0.74,1.66-1.31,2.69-1.73
			s2.15-0.63,3.33-0.63c1.28,0,2.44,0.24,3.5,0.71c1.06,0.47,1.96,1.16,2.71,2.05c0.75,0.89,1.33,1.98,1.73,3.27
			s0.61,2.74,0.61,4.37c0,2.24-0.21,4.21-0.64,5.89c-0.43,1.68-1.03,3.09-1.8,4.22c-0.77,1.13-1.71,1.99-2.82,2.56
			c-1.11,0.57-2.34,0.86-3.68,0.86c-1.5,0-2.87-0.34-4.11-1.02c-1.24-0.68-2.25-1.65-3.02-2.9l2.14-2.24
			c0.51,0.92,1.21,1.66,2.1,2.19c0.89,0.54,1.88,0.81,2.95,0.81c1.65,0,2.96-0.7,3.94-2.1c0.98-1.4,1.49-3.36,1.53-5.89
			c-0.46,0.99-1.18,1.77-2.16,2.34c-0.98,0.57-2.1,0.86-3.35,0.86c-1.14,0-2.21-0.2-3.2-0.61c-0.99-0.41-1.85-0.96-2.57-1.67
			c-0.73-0.7-1.3-1.53-1.72-2.49S237.09,166.8,237.09,165.71z M245.54,160.69c-0.68,0-1.33,0.13-1.93,0.4
			c-0.61,0.26-1.13,0.63-1.58,1.09c-0.45,0.46-0.81,1-1.07,1.6c-0.26,0.61-0.4,1.25-0.4,1.93s0.13,1.32,0.4,1.91
			c0.26,0.59,0.62,1.12,1.07,1.57c0.45,0.45,0.98,0.81,1.58,1.07c0.6,0.26,1.25,0.4,1.93,0.4c0.68,0,1.33-0.13,1.93-0.4
			c0.6-0.26,1.13-0.62,1.58-1.07c0.45-0.45,0.81-0.97,1.07-1.57c0.26-0.59,0.4-1.23,0.4-1.91s-0.13-1.33-0.4-1.93
			c-0.26-0.61-0.62-1.14-1.07-1.6c-0.45-0.46-0.98-0.83-1.58-1.09C246.86,160.82,246.22,160.69,245.54,160.69z"></path>
        <path d="M274.97,166.76c0,1.45-0.21,2.79-0.64,4.01c-0.43,1.22-1.02,2.28-1.78,3.17c-0.76,0.89-1.65,1.58-2.67,2.08
			c-1.02,0.49-2.14,0.74-3.35,0.74s-2.33-0.25-3.37-0.74c-1.03-0.5-1.92-1.19-2.67-2.08c-0.75-0.89-1.34-1.95-1.77-3.17
			c-0.43-1.22-0.64-2.56-0.64-4.01s0.21-2.79,0.64-4.01c0.43-1.22,1.02-2.28,1.77-3.17c0.75-0.89,1.64-1.59,2.67-2.1
			c1.03-0.51,2.16-0.76,3.37-0.76s2.33,0.25,3.35,0.76c1.02,0.51,1.91,1.21,2.67,2.1c0.76,0.89,1.35,1.95,1.78,3.17
			C274.76,163.97,274.97,165.31,274.97,166.76z M271.28,166.76c0-0.99-0.12-1.89-0.35-2.71c-0.23-0.81-0.56-1.52-0.99-2.11
			c-0.43-0.59-0.94-1.05-1.52-1.37c-0.58-0.32-1.22-0.48-1.9-0.48c-0.73,0-1.38,0.16-1.96,0.48c-0.58,0.32-1.09,0.78-1.52,1.37
			c-0.43,0.59-0.76,1.3-0.99,2.11c-0.23,0.81-0.35,1.72-0.35,2.71s0.12,1.89,0.35,2.71c0.23,0.81,0.56,1.51,0.99,2.1
			s0.93,1.03,1.52,1.35c0.58,0.32,1.24,0.48,1.96,0.48c0.68,0,1.31-0.16,1.9-0.48c0.58-0.32,1.09-0.77,1.52-1.35
			c0.43-0.58,0.76-1.28,0.99-2.1C271.16,168.65,271.28,167.75,271.28,166.76z"></path>
        <path d="M278.96,176.43c0-0.92,0.08-1.78,0.23-2.57s0.43-1.53,0.83-2.23c0.4-0.69,0.93-1.35,1.62-1.98
			c0.68-0.63,1.56-1.24,2.64-1.83c0.77-0.42,1.5-0.8,2.18-1.15c0.68-0.35,1.28-0.7,1.8-1.04c0.52-0.34,0.93-0.7,1.24-1.09
			c0.31-0.38,0.46-0.83,0.46-1.34c0-0.7-0.3-1.34-0.91-1.9c-0.61-0.56-1.48-0.84-2.62-0.84c-0.59,0-1.14,0.08-1.63,0.25
			s-0.95,0.37-1.35,0.63s-0.76,0.53-1.07,0.84c-0.31,0.31-0.58,0.61-0.83,0.89l-2.31-2.67c0.22-0.24,0.57-0.54,1.04-0.91
			c0.47-0.36,1.04-0.71,1.72-1.04c0.67-0.33,1.44-0.61,2.29-0.84c0.86-0.23,1.79-0.35,2.81-0.35c1.06,0,2.01,0.14,2.85,0.41
			c0.85,0.28,1.56,0.66,2.14,1.14c0.58,0.48,1.03,1.06,1.34,1.73c0.31,0.67,0.46,1.39,0.46,2.16c0,0.81-0.17,1.54-0.5,2.18
			c-0.33,0.64-0.74,1.2-1.22,1.68c-0.48,0.48-1.01,0.9-1.58,1.24c-0.57,0.34-1.1,0.63-1.58,0.88c-0.46,0.22-0.98,0.48-1.57,0.78
			s-1.15,0.64-1.7,1.02s-1.04,0.8-1.49,1.24s-0.75,0.92-0.92,1.45h10.92v3.27H278.96z"></path>
      </g>
      <g>
        <path d="M43.39,136.87V92.85h19.16c1.98,0,3.81,0.41,5.49,1.24c1.67,0.83,3.11,1.91,4.31,3.25
			c1.2,1.34,2.14,2.87,2.82,4.59c0.68,1.72,1.02,3.46,1.02,5.24c0,1.49-0.21,2.91-0.62,4.28s-0.99,2.62-1.74,3.78
			s-1.65,2.16-2.73,3.01c-1.08,0.85-2.25,1.48-3.53,1.89l10.35,16.74h-7.87l-9.55-15.31H50.33v15.31H43.39z M50.33,115.42h12.15
			c0.99,0,1.89-0.22,2.7-0.65c0.81-0.43,1.5-1.03,2.08-1.8c0.58-0.76,1.03-1.64,1.36-2.64c0.33-0.99,0.5-2.05,0.5-3.16
			c0-1.12-0.2-2.17-0.59-3.16c-0.39-0.99-0.91-1.86-1.55-2.6c-0.64-0.74-1.39-1.33-2.23-1.77c-0.85-0.43-1.73-0.65-2.63-0.65H50.33
			V115.42z"></path>
        <path d="M83.21,136.87V92.85h6.94v44.02H83.21z"></path>
        <path d="M105.92,105.87v31h-6.94V92.85h5.46l25.17,31.74V92.91h7.01v43.96h-5.77L105.92,105.87z"></path>
        <path d="M176.44,131.41c-3.72,3.84-8,5.77-12.83,5.77c-2.94,0-5.66-0.61-8.18-1.83c-2.52-1.22-4.71-2.86-6.57-4.93
			c-1.86-2.07-3.32-4.46-4.37-7.19c-1.05-2.73-1.58-5.58-1.58-8.56c0-2.98,0.53-5.81,1.58-8.49c1.05-2.69,2.51-5.04,4.37-7.07
			c1.86-2.02,4.07-3.63,6.63-4.81c2.56-1.18,5.35-1.77,8.37-1.77c4.22,0,7.75,0.88,10.6,2.64c2.85,1.76,5,4.08,6.45,6.97l-5.33,3.84
			c-1.2-2.4-2.85-4.19-4.96-5.39c-2.11-1.2-4.42-1.8-6.94-1.8c-2.07,0-3.95,0.44-5.64,1.33c-1.7,0.89-3.14,2.07-4.34,3.53
			c-1.2,1.47-2.12,3.17-2.76,5.12c-0.64,1.94-0.96,3.97-0.96,6.08c0,2.23,0.36,4.32,1.08,6.26c0.72,1.94,1.71,3.64,2.98,5.08
			c1.26,1.45,2.76,2.59,4.5,3.44c1.74,0.85,3.62,1.27,5.64,1.27c2.23,0,4.37-0.52,6.42-1.55c2.05-1.03,4-2.67,5.86-4.9v-4.71h-9.24
			v-5.15h15.07v22.26h-5.83V131.41z"></path>
        <path d="M187.97,106.43l1.3-7.32h-2.17v-7.69h6.7v7.75l-2.05,7.25H187.97z"></path>
        <path d="M227.63,103.2c-0.41-0.45-1.01-0.94-1.8-1.46c-0.79-0.52-1.71-1-2.76-1.46c-1.05-0.45-2.21-0.83-3.47-1.12
			c-1.26-0.29-2.55-0.43-3.88-0.43c-2.93,0-5.09,0.54-6.48,1.61c-1.39,1.08-2.08,2.56-2.08,4.46c0,1.08,0.22,1.95,0.65,2.63
			c0.43,0.68,1.1,1.28,2.02,1.8c0.91,0.52,2.05,0.97,3.41,1.36c1.36,0.39,2.95,0.82,4.77,1.27c2.23,0.54,4.25,1.14,6.04,1.8
			c1.8,0.66,3.32,1.47,4.56,2.42c1.24,0.95,2.2,2.12,2.88,3.5s1.02,3.07,1.02,5.05c0,2.23-0.42,4.15-1.27,5.77
			c-0.85,1.61-2,2.92-3.47,3.94c-1.47,1.01-3.17,1.76-5.12,2.23c-1.94,0.47-4.03,0.71-6.26,0.71c-3.35,0-6.58-0.51-9.7-1.52
			c-3.12-1.01-5.94-2.49-8.46-4.43l3.16-5.95c0.54,0.54,1.31,1.14,2.32,1.8c1.01,0.66,2.19,1.27,3.53,1.83
			c1.34,0.56,2.8,1.03,4.37,1.43c1.57,0.39,3.2,0.59,4.9,0.59c2.73,0,4.84-0.47,6.32-1.43c1.49-0.95,2.23-2.36,2.23-4.22
			c0-1.12-0.28-2.05-0.84-2.79s-1.35-1.39-2.39-1.95c-1.03-0.56-2.29-1.06-3.78-1.52s-3.18-0.93-5.08-1.43
			c-2.19-0.58-4.1-1.19-5.74-1.83c-1.63-0.64-2.99-1.42-4.06-2.33c-1.08-0.91-1.89-1.97-2.45-3.19c-0.56-1.22-0.84-2.7-0.84-4.43
			c0-2.15,0.41-4.06,1.24-5.74c0.83-1.67,1.95-3.08,3.38-4.22c1.43-1.14,3.11-1.99,5.05-2.57c1.94-0.58,4.05-0.87,6.32-0.87
			c2.98,0,5.72,0.48,8.25,1.43c2.52,0.95,4.73,2.13,6.63,3.53L227.63,103.2z"></path>
        <path d="M284.98,130.73v6.14h-30.19V92.85h29.64v6.14h-22.69v12.52h19.65v5.77h-19.65v13.45H284.98z"></path>
        <path d="M297.63,105.87v31h-6.94V92.85h5.46l25.17,31.74V92.91h7.01v43.96h-5.77L297.63,105.87z"></path>
        <path d="M337.2,136.87V92.85h15.62c3.55,0,6.67,0.58,9.33,1.74c2.67,1.16,4.9,2.73,6.7,4.71
			c1.8,1.98,3.15,4.31,4.06,6.98c0.91,2.67,1.36,5.51,1.36,8.53c0,3.35-0.51,6.38-1.52,9.08s-2.45,5.02-4.31,6.94
			s-4.11,3.41-6.76,4.46c-2.65,1.05-5.6,1.58-8.87,1.58H337.2z M367.21,114.8c0-2.31-0.32-4.44-0.96-6.39
			c-0.64-1.94-1.58-3.61-2.82-4.99c-1.24-1.38-2.75-2.47-4.53-3.25c-1.78-0.78-3.8-1.18-6.08-1.18h-8.68v31.74h8.68
			c2.31,0,4.37-0.4,6.17-1.21s3.31-1.92,4.53-3.35c1.22-1.43,2.14-3.11,2.76-5.05C366.9,119.18,367.21,117.07,367.21,114.8z"></path>
      </g>
    </g>
  </symbol>
  <symbol version="1.1" id="chat" xmlns="http://www.w3.org/2000/svg" xmlns:xlink="http://www.w3.org/1999/xlink" x="0px" y="0px" xml:space="preserve" viewBox="0 0 101.8 87.8">
    <path xmlns="http://www.w3.org/2000/svg" fill="none" stroke="#58595B" stroke-linecap="round" stroke-linejoin="round" stroke-miterlimit="10" stroke-width="4" d="M50.9,2C23.9,2,2,20.8,2,43.9c0,8.3,2.8,16,7.6,22.4C13.2,73,10.9,81.2,4.4,85c7.9,2.1,15.9-0.1,21.5-5.2 c7.3,3.8,15.9,5.9,25,5.9c27,0,48.9-18.8,48.9-41.9C99.8,20.8,77.9,2,50.9,2z"/><path xmlns="http://www.w3.org/2000/svg" fill="none" stroke="#58595B" stroke-linecap="round" stroke-linejoin="round" stroke-miterlimit="10" stroke-width="4" d="M35.5,45.2c-0.3,0-0.7-0.1-0.9-0.4c-0.2-0.2-0.4-0.6-0.4-0.9c0-0.1,0-0.2,0-0.3c0-0.1,0-0.2,0.1-0.3 c0-0.1,0.1-0.2,0.2-0.3c0,0,0,0,0,0s0.1-0.1,0.1-0.2c0.2-0.2,0.5-0.3,0.9-0.3c0.4,0,0.7,0.1,0.9,0.3c0.1,0.1,0.2,0.2,0.2,0.3 l0.1,0.4c0,0.1,0,0.2,0,0.3c0,0.3-0.2,0.7-0.4,0.9C36.1,45,35.8,45.2,35.5,45.2z"/><circle xmlns="http://www.w3.org/2000/svg" cx="50.9" cy="43.9" r="1.3" fill="none" stroke="#58595B" stroke-linecap="round" stroke-linejoin="round" stroke-miterlimit="10" stroke-width="4"/><path xmlns="http://www.w3.org/2000/svg" fill="none" stroke="#58595B" stroke-linecap="round" stroke-linejoin="round" stroke-miterlimit="10" stroke-width="4" d="M66.3,45.2c-0.2,0-0.3,0-0.4,0l-0.3-0.2c-0.1,0-0.2-0.1-0.2-0.2c-0.1-0.1-0.3-0.5-0.3-0.8 c0-0.3,0.1-0.7,0.4-0.9c0,0,0,0,0,0c0,0,0.1-0.1,0.2-0.1l0.3-0.2l0.4-0.1c0.4,0,0.7,0.2,1,0.4c0.2,0.2,0.3,0.6,0.3,0.9 c0,0.3-0.2,0.7-0.4,0.9C67,45,66.7,45.2,66.3,45.2z"/>
  </symbol>
  <symbol version="1.1" id="close" xmlns="http://www.w3.org/2000/svg" xmlns:xlink="http://www.w3.org/1999/xlink" x="0px" y="0px" xml:space="preserve" viewBox="0 0 127.3 127.3">
    <path xmlns="http://www.w3.org/2000/svg" fill="none" stroke="#58595B" stroke-linecap="round" stroke-linejoin="round" stroke-miterlimit="10" stroke-width="4.5" d="M2.2 2.2L125.1 125.1"/><path xmlns="http://www.w3.org/2000/svg" fill="none" stroke="#58595B" stroke-linecap="round" stroke-linejoin="round" stroke-miterlimit="10" stroke-width="4.5" d="M125.1 2.2L2.2 125.1"/>
  </symbol>
  <symbol version="1.0" xmlns="http://www.w3.org/2000/svg" preserveAspectRatio="xMidYMid meet" viewBox="0 0 512.000000 512.000000" id="delete">
    <g xmlns="http://www.w3.org/2000/svg" fill="#000000"><path d="M2014 5108 c-59 -19 -127 -80 -159 -143 -28 -54 -30 -68 -33 -182 l-4 -123 161 0 161 0 0 75 0 75 420 0 420 0 0 -75 0 -75 160 0 160 0 0 113 c0 77 -5 128 -16 160 -19 57 -83 131 -138 160 -41 22 -45 22 -571 24 -339 1 -541 -2 -561 -9z" transform="matrix(.1 0 0 -.1 0 512)"/><path d="M770 4338 c-25 -13 -55 -38 -67 -56 -31 -47 -133 -359 -133 -407 1 -49 17 -80 56 -106 28 -18 68 -19 1935 -19 l1906 0 34 23 c23 15 38 37 48 66 14 43 13 47 -48 232 -67 204 -87 239 -156 270 -38 18 -114 19 -1785 19 l-1746 0 -44 -22z" transform="matrix(.1 0 0 -.1 0 512)"/><path d="M1063 3439 c-39 -11 -80 -59 -88 -102 -5 -27 223 -2927 240 -3057 15 -113 99 -222 201 -259 54 -21 68 -21 1142 -21 709 0 1100 4 1124 10 92 26 186 120 213 213 13 49 255 2966 255 3085 0 40 -5 57 -27 83 -53 63 46 59 -1560 58 -857 0 -1481 -5 -1500 -10z m685 -392 c13 -12 30 -34 38 -49 16 -31 172 -2515 161 -2560 -24 -92 -140 -139 -221 -88 -43 26 -65 69 -72 137 -3 32 -38 600 -79 1263 -72 1180 -74 1205 -56 1245 21 47 38 63 87 80 46 15 109 3 142 -28z m909 1 c56 -52 53 27 53 -1345 0 -1248 0 -1269 -20 -1301 -59 -96 -197 -96 -255 0 -20 33 -20 51 -20 1303 l0 1270 22 35 c50 79 156 98 220 38z m903 4 c14 -10 33 -35 44 -56 18 -37 17 -52 -56 -1300 -82 -1391 -73 -1303 -144 -1346 -81 -51 -197 -4 -221 88 -4 15 26 587 66 1272 79 1350 74 1306 135 1345 56 37 123 35 176 -3z" transform="matrix(.1 0 0 -.1 0 512)"/></g>
  </symbol>
  <symbol version="1.0" xmlns="http://www.w3.org/2000/svg" preserveAspectRatio="xMidYMid meet" viewBox="0 0 512.000000 512.000000" id="downarrow">
    <g>
      <title>Layer 1</title>
      <polyline stroke="#58595B" id="svg_1" stroke-miterlimit="10" stroke-linejoin="round" stroke-linecap="round" stroke-width="36.9" fill="none" points="509.875,126.16470336914062 253.8429412841797,390.4150085449219 2.125,121.58499145507812 "></polyline>
    </g>
  </symbol>
  <symbol version="1.1" id="house" xmlns="http://www.w3.org/2000/svg" xmlns:xlink="http://www.w3.org/1999/xlink" x="0px" y="0px" xml:space="preserve" viewBox="0 0 593.3 529.1">
    <polygon points="363.6,529.1 363.6,241.4 477.9,101.3 593.3,241.4 593.3,529.1 520.2,528.5 519.8,306.1 440.9,306.1 
	441,529.1 "></polygon>
    <polygon points="0,213.2 129.6,47.4 129.6,0 220.4,0 220.4,47.4 376.1,47.4 376.1,0 462.6,0 462.6,74.3 342.4,213.2 "></polygon>
    <path d="M0.4,527.6h333V241.4H0.4V527.6z M285.5,428.4h-37v-40.2h37V428.4z M248.4,337.8h37v40.1h-37V337.8z
	 M233.6,428.2h-37V388h37V428.2z M196.5,337.5h37v40.1h-37V337.5z M141.9,427.7h-37v-40.1h37V427.7z M104.8,337.1h37v40.1h-37V337.1
	z M90,427.4H53v-40.1h37V427.4z M52.9,336.8h37v40.1h-37V336.8z"></path>
  </symbol>
  <symbol version="1.1" id="menu" xmlns="http://www.w3.org/2000/svg" xmlns:xlink="http://www.w3.org/1999/xlink" x="0px" y="0px" xml:space="preserve" viewBox="0 0 180.8 130.3">
    <path xmlns="http://www.w3.org/2000/svg" fill="none" stroke="#58595B" stroke-linecap="round" stroke-linejoin="round" stroke-miterlimit="10" stroke-width="6" d="M176.7 65.2L3 65.2"/><path xmlns="http://www.w3.org/2000/svg" fill="none" stroke="#58595B" stroke-linecap="round" stroke-linejoin="round" stroke-miterlimit="10" stroke-width="6" d="M176.7 3L3 3"/><path xmlns="http://www.w3.org/2000/svg" fill="none" stroke="#58595B" stroke-linecap="round" stroke-linejoin="round" stroke-miterlimit="10" stroke-width="6" d="M177.8 127.3L4.1 127.3"/>
  
  </symbol>
  <symbol version="1.1" id="search" xmlns="http://www.w3.org/2000/svg" xmlns:xlink="http://www.w3.org/1999/xlink" x="0px" y="0px" xml:space="preserve" viewBox="0 0 192.1 192.3">
    <path xmlns="http://www.w3.org/2000/svg" fill="none" stroke="#FFFFFF" stroke-linecap="round" stroke-linejoin="round" stroke-miterlimit="10" stroke-width="7" d="M151.7,77.6c0,40.9-33.2,74.1-74.1,74.1S3.5,118.5,3.5,77.6c0-40.9,33.2-74.1,74.1-74.1S151.7,36.7,151.7,77.6z"/><path xmlns="http://www.w3.org/2000/svg" fill="none" stroke="#FFFFFF" stroke-linecap="round" stroke-linejoin="round" stroke-miterlimit="10" stroke-width="7" d="M129.9 130.1L188.6 188.8"/>
  </symbol>
  <symbol version="1.1" id="shoppingCart" xmlns="http://www.w3.org/2000/svg" xmlns:xlink="http://www.w3.org/1999/xlink" x="0px" y="0px" xml:space="preserve" viewBox="0 0 164.2 153.3">
    <path xmlns="http://www.w3.org/2000/svg" fill="none" stroke="#58595B" stroke-miterlimit="10" stroke-width="6" d="M3,15.6V3h15.7c4,0,7.4,2.7,8.4,6.6l22.9,93c1.8,7.2,8.3,12.3,15.7,12.3h77.6H65.7c-7.5,0-14-5.1-15.7-12.3 L27,9.6C26.1,5.7,22.6,3,18.7,3H3V15.6z"/><path xmlns="http://www.w3.org/2000/svg" fill="none" stroke="#58595B" stroke-miterlimit="10" stroke-width="6" d="M30.4,23.2h129.4c0.9,0,1.6,0.8,1.3,1.7l-15.8,64.3c0,0.2-0.2,0.3-0.3,0.3H46.7H145c0.2,0,0.3-0.1,0.3-0.3 l15.8-64.3c0.2-0.9-0.4-1.7-1.3-1.7C159.8,23.2,30.4,23.2,30.4,23.2z"/><path xmlns="http://www.w3.org/2000/svg" fill="none" stroke="#58595B" stroke-miterlimit="10" stroke-width="6" d="M127.7,23.2l-6.5,66.3L127.7,23.2z"/><path xmlns="http://www.w3.org/2000/svg" fill="none" stroke="#58595B" stroke-miterlimit="10" stroke-width="6" d="M64.7,23.2l6.5,66.3L64.7,23.2z"/><path xmlns="http://www.w3.org/2000/svg" fill="none" stroke="#58595B" stroke-miterlimit="10" stroke-width="6" d="M96,23.2v66.3V23.2z"/><path xmlns="http://www.w3.org/2000/svg" fill="none" stroke="#58595B" stroke-miterlimit="10" stroke-width="6" d="M38.5,56.3h114.9H38.5z"/><path xmlns="http://www.w3.org/2000/svg" fill="none" stroke="#58595B" stroke-miterlimit="10" stroke-width="6" d="M80.6,140.9c0,5.2-4.2,9.4-9.4,9.4s-9.4-4.2-9.4-9.4c0-5.2,4.2-9.4,9.4-9.4C76.4,131.5,80.6,135.7,80.6,140.9z"/><path xmlns="http://www.w3.org/2000/svg" fill="none" stroke="#58595B" stroke-miterlimit="10" stroke-width="6" d="M127.7,140.9c0,5.2-4.2,9.4-9.4,9.4s-9.4-4.2-9.4-9.4c0-5.2,4.2-9.4,9.4-9.4 C123.5,131.5,127.7,135.7,127.7,140.9z"/>
  </symbol>
  <symbol version="1.1" id="user" xmlns="http://www.w3.org/2000/svg" xmlns:xlink="http://www.w3.org/1999/xlink" x="0px" y="0px" xml:space="preserve" viewBox="0 0 94.7 117.6">
    <path d="M2.1,113.2c0.2,0.7,0.8,1.2,1.6,1.3c9.1,1.4,24,3.1,42.9,3.1c0,0,0.1,0,0.1,0h0.6H48c0,0,0.1,0,0.1,0
	c19,0,33.8-1.7,42.9-3.1c0.7-0.1,1.3-0.5,1.5-1.2c0.1-0.1,0.1-0.2,0.2-0.2c1.8-2.2,4.7-5.5-3.8-39.7c-5.6-22.8-14.6-26.3-30.1-29.3
	C66,40,70.7,32.4,70.7,23.7C70.7,10.6,60.1,0,47.1,0S23.4,10.6,23.4,23.6c0,8.8,4.8,16.5,12,20.5c-15.2,3-24.1,6.6-29.6,29.2
	C-2.7,107.5,0.1,110.8,2,113C2,113.1,2.1,113.2,2.1,113.2z M27.4,23.6C27.4,12.8,36.2,4,47.1,4s19.7,8.8,19.7,19.6
	s-8.8,19.6-19.7,19.6C36.2,43.3,27.4,34.5,27.4,23.6z M9.6,74.3c5.5-22.4,13.6-23.8,31.3-27.1l0.3,0c1.9,0.6,4,1,6.1,1.1
	c0.1,0,0.1,0,0.2,0c2.1-0.1,4.1-0.5,6.1-1.1l0.3,0c17.7,3.2,25.8,4.7,31.3,27.1l0,0c7.9,32.2,5.4,35.2,4.6,36.2
	c-0.1,0.1-0.1,0.1-0.2,0.2c-3.7,0.6-8.4,1.2-13.8,1.7V78.7c0-1.1-0.9-2-2-2s-2,0.9-2,2v34c-6.9,0.6-14.8,0.9-23.7,0.9
	c0,0-0.1,0-0.1,0h-0.5h-0.5c0,0-0.1,0-0.1,0c-9.5,0-18-0.4-25.2-1.1V78.7c0-1.1-0.9-2-2-2s-2,0.9-2,2v33.5c-4.8-0.5-8.9-1-12.3-1.5
	c-0.1-0.1-0.1-0.2-0.2-0.2C4.2,109.5,1.7,106.5,9.6,74.3z"></path>
  </symbol>
</svg>