<svg width="0" height="0" class="hidden">
  <symbol version="1.0" xmlns="http://www.w3.org/2000/svg" viewBox="0 0 512 512" id="delete">
    <path d="M201.4 1.2c-5.9 1.9-12.7 8-15.9 14.3-2.8 5.4-3 6.8-3.3 18.2l-.4 12.3H214V31h84v15h32V34.7c0-7.7-.5-12.8-1.6-16-1.9-5.7-8.3-13.1-13.8-16C310.5.5 310.1.5 257.5.3c-33.9-.1-54.1.2-56.1.9zM77 78.2c-2.5 1.3-5.5 3.8-6.7 5.6-3.1 4.7-13.3 35.9-13.3 40.7.1 4.9 1.7 8 5.6 10.6 2.8 1.8 6.8 1.9 193.5 1.9h190.6l3.4-2.3c2.3-1.5 3.8-3.7 4.8-6.6 1.4-4.3 1.3-4.7-4.8-23.2-6.7-20.4-8.7-23.9-15.6-27-3.8-1.8-11.4-1.9-178.5-1.9H81.4L77 78.2zm29.3 89.9c-3.9 1.1-8 5.9-8.8 10.2-.5 2.7 22.3 292.7 24 305.7 1.5 11.3 9.9 22.2 20.1 25.9 5.4 2.1 6.8 2.1 114.2 2.1 70.9 0 110-.4 112.4-1 9.2-2.6 18.6-12 21.3-21.3 1.3-4.9 25.5-296.6 25.5-308.5 0-4-.5-5.7-2.7-8.3-5.3-6.3 4.6-5.9-156-5.8-85.7 0-148.1.5-150 1zm68.5 39.2c1.3 1.2 3 3.4 3.8 4.9 1.6 3.1 17.2 251.5 16.1 256-2.4 9.2-14 13.9-22.1 8.8-4.3-2.6-6.5-6.9-7.2-13.7-.3-3.2-3.8-60-7.9-126.3-7.2-118-7.4-120.5-5.6-124.5 2.1-4.7 3.8-6.3 8.7-8 4.6-1.5 10.9-.3 14.2 2.8zm90.9-.1c5.6 5.2 5.3-2.7 5.3 134.5 0 124.8 0 126.9-2 130.1-5.9 9.6-19.7 9.6-25.5 0-2-3.3-2-5.1-2-130.3v-127l2.2-3.5c5-7.9 15.6-9.8 22-3.8zm90.3-.4c1.4 1 3.3 3.5 4.4 5.6 1.8 3.7 1.7 5.2-5.6 130-8.2 139.1-7.3 130.3-14.4 134.6-8.1 5.1-19.7.4-22.1-8.8-.4-1.5 2.6-58.7 6.6-127.2 7.9-135 7.4-130.6 13.5-134.5 5.6-3.7 12.3-3.5 17.6.3z"></path>
  </symbol>
  <symbol version="1.0" xmlns="http://www.w3.org/2000/svg" viewBox="0 0 512 512" id="downarrow">
    <path d="M24.5 111.3c-9 3-17.1 10.2-21.6 19.2C.8 134.8.5 136.9.5 146c0 9.6.2 11 2.8 16 2.4 4.5 24.2 26.8 116.5 119.2 94.4 94.5 114.7 114.3 119.7 117 5.7 3.1 6.5 3.3 16.5 3.3s10.8-.2 16.5-3.3c5.1-2.7 25.2-22.4 120.1-117.5 90.5-90.6 114.5-115.2 116.5-119.2 2.1-4.3 2.4-6.4 2.4-15.5 0-9.6-.3-11-2.9-16.2-3.5-6.9-9.3-12.7-16.6-16.5-5-2.5-6.5-2.8-15.5-2.8-17.5 0-7.5-8.7-120.7 104.4L256 314.5l-99.7-99.6C44.2 103.1 53.1 110.8 37 110.3c-5-.1-10.1.3-12.5 1z"></path>
  </symbol>
  <symbol xmlns="http://www.w3.org/2000/svg" viewBox="0 0 593.3 529.1" id="house">
    <path d="M363.6 529.1V241.4l114.3-140.1 115.4 140.1v287.7l-73.1-.6-.4-222.4h-78.9l.1 223zM0 213.2L129.6 47.4V0h90.8v47.4h155.7V0h86.5v74.3L342.4 213.2zm.4 314.4h333V241.4H.4v286.2zm285.1-99.2h-37v-40.2h37v40.2zm-37.1-90.6h37v40.1h-37v-40.1zm-14.8 90.4h-37V388h37v40.2zm-37.1-90.7h37v40.1h-37v-40.1zm-54.6 90.2h-37v-40.1h37v40.1zm-37.1-90.6h37v40.1h-37v-40.1zM90 427.4H53v-40.1h37v40.1zm-37.1-90.6h37v40.1h-37v-40.1z"></path>
  </symbol>
  <symbol version="1.0" xmlns="http://www.w3.org/2000/svg" viewBox="0 0 512 512" id="menu">
    <path d="M9.3 78.6C3.1 82.3 0 88.1 0 96c0 8 3.1 13.8 9.4 17.5l4.3 2.5h484.6l4.3-2.5c6.3-3.7 9.4-9.5 9.4-17.5s-3.1-13.8-9.4-17.5l-4.3-2.5H13.5l-4.2 2.6zm0 160C3.1 242.3 0 248.1 0 256c0 8 3.1 13.8 9.4 17.5l4.3 2.5h484.6l4.3-2.5c6.3-3.7 9.4-9.5 9.4-17.5s-3.1-13.8-9.4-17.5l-4.3-2.5H13.5l-4.2 2.6zm0 160C3.1 402.3 0 408.1 0 416c0 8 3.1 13.8 9.4 17.5l4.3 2.5h484.6l4.3-2.5c6.3-3.7 9.4-9.5 9.4-17.5s-3.1-13.8-9.4-17.5l-4.3-2.5H13.5l-4.2 2.6z"></path>
  </symbol>
  <symbol version="1.0" xmlns="http://www.w3.org/2000/svg" viewBox="0 0 512 512" id="search">
    <path d="M177 1.1c-20.1 2.6-46.1 10.4-63.4 19.1C51.3 51.5 9.4 110.1 1 178c-1.5 12.5-1.2 40.5.5 52.9C7.9 275.1 28 315 59.7 346.6c61.2 60.9 153.4 76.4 230.9 38.8 14.1-6.8 28.7-16.1 40-25.4l7.1-5.9 75.9 76.1c41.7 41.8 77.7 77.3 79.8 78.9 12 8.9 24.6-3.7 15.7-15.7-1.6-2.1-37.1-38.1-78.9-79.8l-76.1-75.9 5.9-7.1c43.9-53.2 57.5-128.7 34.9-193.2-10.8-30.9-26-55.3-48.3-77.7C315 28 275.1 7.9 230.9 1.5 219.4-.1 188.4-.4 177 1.1zm55 23.3c38 6.6 71.6 24.1 98.7 51.4 34.1 34.3 52.3 78.4 52.3 126.7 0 49.2-18.1 92.7-52.9 127.6-28.4 28.3-61.5 45.1-101.7 51.3-13.3 2.1-38.5 2.1-51.8 0-53-8.2-97.7-37.5-126.9-83.1-12.6-19.6-22-44.8-25.8-69.3-1.8-10.8-1.8-41.8 0-52.5 8.7-54.4 39-99.6 86.3-128.8 18.5-11.5 44.6-20.7 66.3-23.6 4.4-.6 9.4-1.3 11-1.5 6-.9 36.2.4 44.5 1.8z"></path>
  </symbol>
  <symbol xmlns="http://www.w3.org/2000/svg" viewBox="0 0 511.856 511.856" id="shoppingCart">
    <path d="M509.552 130.172a10.143 10.143 0 00-7.84-3.707h-23.973a76.235 76.235 0 00-.238-18.122c-2.667-20.146-13.019-38.046-29.15-50.405-14.622-11.203-32.407-16.616-50.611-15.545V29.81c0-5.602-4.542-10.144-10.144-10.144H250.658c-5.602 0-10.144 4.542-10.144 10.144v24.852H134.513c-5.602 0-10.144 4.542-10.144 10.144v61.66h-18.153L93.24 72.136a10.144 10.144 0 00-9.866-7.787H55.393c-5.602 0-10.144 4.542-10.144 10.144s4.542 10.144 10.144 10.144h19.975l62.564 261.949-23.693 60.552c-21.161 2.508-37.63 20.547-37.63 42.371 0 23.534 19.147 42.682 42.682 42.682s42.681-19.147 42.681-42.682c0-8.209-2.335-15.88-6.368-22.395h232.465a42.413 42.413 0 00-6.368 22.395c0 23.534 19.147 42.682 42.682 42.682s42.681-19.147 42.681-42.682-19.146-42.681-42.681-42.681l-288.237-.002 19.247-49.192h284.834c16.464 0 30.577-13.2 34.32-32.094l37.115-186.956a10.146 10.146 0 00-2.11-8.412zM119.291 471.903c-12.349 0-22.394-10.046-22.394-22.394s10.046-22.393 22.394-22.393 22.393 10.046 22.393 22.393c0 12.348-10.046 22.394-22.393 22.394zm327.485-22.394c0 12.349-10.046 22.394-22.393 22.394-12.349 0-22.394-10.046-22.394-22.394s10.046-22.393 22.394-22.393c12.347-.001 22.393 10.045 22.393 22.393zm33.47-256.861h-94.001l-11.379-45.895h114.492zm-13.14 66.184h-64.453l-11.379-45.897h84.944zm-133.23 78.515l-14.437-58.228h67.343l14.437 58.228zm-88.246 0l-14.436-58.228h67.344l14.437 58.228zm-89.047 0l-13.907-58.228h67.617l14.436 58.228zm197.381-190.594l11.379 45.895H298l-11.379-45.895zm-88.245 0l11.379 45.895h-67.344l-11.379-45.895zm16.409 66.182l11.38 45.897h-67.344l-11.379-45.897zm-76.865 45.897H137.83l-10.962-45.897h67.015zm109.146 0l-11.379-45.897h67.343l11.38 45.897zm142.982-147.826a55.882 55.882 0 01-.098 15.459H397.74V62.711c29.326-2.302 55.744 18.794 59.651 48.295zm-196.59-71.053h116.652v86.512h-95.857v-61.66c0-5.602-4.542-10.144-10.144-10.144h-10.651zM144.657 74.949h116.652v51.517H144.657zm32.818 71.804l11.379 45.895h-66.831l-10.961-45.895zm262.752 190.594h-18.106l-14.437-58.228h55.395l-8.432 42.474c-1.808 9.129-7.873 15.754-14.42 15.754z"></path>
    <circle cx="10" cy="74.695" r="10"></circle>
  </symbol>
  <symbol xmlns="http://www.w3.org/2000/svg" viewBox="0 0 456.368 456.368" id="user">
    <path d="M324.194 220.526c-6.172 7.772-13.106 14.947-21.07 21.423 45.459 26.076 76.149 75.1 76.149 131.158 0 30.29-66.367 54.018-151.09 54.018s-151.09-23.728-151.09-54.018c0-56.058 30.69-105.082 76.149-131.158-7.963-6.476-14.897-13.65-21.07-21.423-50.624 31.969-84.322 88.41-84.322 152.581 0 19.439 10.644 46.53 61.355 65.201 31.632 11.647 73.886 18.06 118.979 18.06s87.347-6.413 118.979-18.06c50.71-18.671 61.355-45.762 61.355-65.201-.002-64.171-33.7-120.612-84.324-152.581z"></path>
    <path d="M228.182 239.795c56.833 0 100.597-54.936 100.597-119.897C328.779 54.907 284.993 0 228.182 0c-56.833 0-100.597 54.936-100.597 119.897 0 64.991 43.787 119.898 100.597 119.898zm0-210.552c39.344 0 71.354 40.667 71.354 90.654s-32.01 90.654-71.354 90.654-71.354-40.667-71.354-90.654 32.01-90.654 71.354-90.654z"></path>
  </symbol>
  <symbol xmlns="http://www.w3.org/2000/svg" viewBox="0 0 417.6 208.8" id="brandLogo">
    <path d="M208.08 7.18c54.23 0 105.14 10.35 143.34 29.14 18.29 9 32.6 19.41 42.53 30.96s14.97 23.71 14.97 36.15-5.04 24.6-14.97 36.15c-9.92 11.54-24.23 21.96-42.53 30.96-38.2 18.79-89.11 29.14-143.34 29.14s-105.14-10.35-143.34-29.14c-18.29-9-32.6-19.41-42.53-30.96S7.24 115.87 7.24 103.43s5.04-24.6 14.97-36.15c9.92-11.54 24.23-21.96 42.53-30.96 38.2-18.79 89.11-29.14 143.34-29.14m0-5C94.4 2.18 2.24 47.51 2.24 103.43S94.4 204.68 208.08 204.68s205.83-45.33 205.83-101.25S321.76 2.18 208.08 2.18z"></path>
    <path d="M153.43 76.82V50.61l10.41-12.75 10.5 12.75v26.21l-6.66-.06-.03-20.25h-7.19l.02 20.31zm-33.11-28.77l11.8-15.1v-4.31h8.27v4.31h14.17v-4.31h7.89v6.76L151.5 48.05zm93.65 28.79v-26.2l10.41-12.75 10.5 12.75v26.2l-6.66-.05-.03-20.25h-7.18l.01 20.3zm-33.11-28.77l11.8-15.1v-4.31h8.27v4.31h14.17v-4.31h7.89v6.77l-10.95 12.64zm-60.51 28.61h30.32V50.61h-30.32v26.07zm25.96-9.03h-3.37v-3.66h3.37v3.66zm-3.37-8.26h3.37v3.65h-3.37v-3.65zm-1.35 8.23h-3.37v-3.65h3.37v3.65zm-3.38-8.25h3.37v3.65h-3.37v-3.65zm-4.97 8.21h-3.37v-3.65h3.37v3.65zm-3.38-8.25h3.37v3.65h-3.37v-3.65zm-1.35 8.23h-3.37V63.9h3.37v3.66zm-3.38-8.26h3.37v3.65h-3.37V59.3zm55.77 17.4h30.32V50.64H180.9V76.7zm25.96-9.03h-3.37v-3.66h3.37v3.66zm-3.38-8.25h3.37v3.65h-3.37v-3.65zm-1.35 8.23h-3.37V64h3.37v3.65zm-3.38-8.26h3.37v3.66h-3.37v-3.66zm-4.97 8.22h-3.37v-3.65h3.37v3.65zm-3.38-8.26h3.37V63h-3.37v-3.65zm-1.35 8.23h-3.37v-3.65h3.37v3.65zm-3.38-8.25h3.37v3.65h-3.37v-3.65z"></path>
    <path d="M185.67 63.98h3.37v-3.65h-3.37m56.13-9.69V76.7h30.32V50.64H241.8zm4.78 8.69h3.37v3.65h-3.37v-3.65zm3.38 8.25h-3.37v-3.65h3.37v3.65zm1.35-8.23h3.37V63h-3.37v-3.65zm3.38 8.26h-3.37v-3.65h3.37v3.65zm4.96-8.22h3.37v3.66h-3.37v-3.66zm3.38 8.26h-3.37V64h3.37v3.65zm1.35-8.23h3.37v3.65h-3.37v-3.65zm3.38 8.25h-3.37v-3.66h3.37v3.66z"></path>
    <path d="M254.69 64.95h-3.37v3.66h3.37m20.18 8.23v-26.2l10.41-12.75 10.51 12.75v26.2l-6.66-.05-.04-20.25h-7.18l.01 20.3zm-33.1-28.77l11.8-15.1v-4.31h8.27v4.31h14.17v-4.31h7.88v6.77l-10.95 12.64zM136.08 158.51c-.22-.24-.54-.5-.96-.78-.42-.28-.91-.53-1.47-.78s-1.18-.44-1.85-.59c-.67-.15-1.36-.23-2.06-.23-1.56 0-2.71.29-3.45.86-.74.57-1.11 1.36-1.11 2.38 0 .57.12 1.04.35 1.4.23.36.59.68 1.07.96s1.09.52 1.82.73c.73.21 1.57.43 2.54.68 1.19.29 2.26.61 3.22.96s1.77.78 2.43 1.29c.66.51 1.17 1.13 1.53 1.86.36.74.54 1.63.54 2.69 0 1.19-.23 2.21-.68 3.07-.45.86-1.07 1.56-1.85 2.09-.78.54-1.69.94-2.72 1.19s-2.15.38-3.33.38c-1.78 0-3.5-.27-5.16-.81s-3.16-1.33-4.5-2.36l1.68-3.17c.29.29.7.61 1.24.96s1.17.68 1.88.97c.71.3 1.49.55 2.33.76.84.21 1.7.31 2.61.31 1.45 0 2.57-.25 3.37-.76.79-.51 1.19-1.25 1.19-2.24 0-.59-.15-1.09-.45-1.48-.3-.4-.72-.74-1.27-1.04-.55-.3-1.22-.57-2.01-.81-.79-.24-1.69-.49-2.71-.76-1.17-.31-2.18-.63-3.05-.97-.87-.34-1.59-.75-2.16-1.24a4.748 4.748 0 01-1.3-1.7c-.3-.65-.45-1.44-.45-2.36 0-1.14.22-2.16.66-3.05.44-.89 1.04-1.64 1.8-2.24.76-.6 1.66-1.06 2.69-1.37 1.03-.31 2.16-.46 3.37-.46 1.58 0 3.05.25 4.39.76s2.52 1.13 3.53 1.88l-1.7 3.02zm6.83-2.18v-3.99h3.63v3.99h-3.63zm0 20.1v-17.26h3.63v17.26h-3.63zm24.45 0h-3.63v-9.67c0-1.63-.26-2.81-.78-3.55-.52-.74-1.28-1.11-2.29-1.11-.53 0-1.06.1-1.58.3-.53.2-1.02.48-1.48.84-.46.36-.87.79-1.24 1.29-.36.5-.64 1.04-.84 1.63v10.26h-3.63v-17.26h3.3v3.46c.66-1.17 1.62-2.08 2.87-2.76 1.25-.67 2.64-1.01 4.16-1.01 1.03 0 1.88.19 2.54.56.66.37 1.18.89 1.57 1.53.38.65.65 1.4.81 2.24.15.85.23 1.74.23 2.69v10.56zm4.09-8.65c0-1.21.21-2.35.63-3.43a8.585 8.585 0 011.8-2.84c.78-.81 1.72-1.46 2.82-1.93 1.1-.47 2.33-.71 3.7-.71 1.78 0 3.32.39 4.6 1.17 1.29.78 2.25 1.82 2.89 3.12l-3.53 1.12c-.42-.73-.98-1.29-1.68-1.7-.7-.41-1.48-.61-2.34-.61-.73 0-1.4.14-2.03.43-.63.29-1.17.69-1.63 1.21s-.83 1.13-1.09 1.83c-.26.71-.4 1.49-.4 2.34 0 .84.14 1.61.41 2.33s.65 1.34 1.12 1.86 1.02.94 1.65 1.24c.63.3 1.29.45 2 .45a4.998 4.998 0 002.52-.69c.36-.22.68-.47.96-.76.27-.29.48-.59.61-.92l3.56 1.06c-.57 1.3-1.53 2.36-2.87 3.18-1.34.83-2.93 1.24-4.75 1.24-1.34 0-2.56-.24-3.66-.73a8.597 8.597 0 01-2.82-1.96 8.865 8.865 0 01-1.81-2.85 9.13 9.13 0 01-.66-3.45zm28.22 8.98c-1.34 0-2.56-.24-3.66-.71a8.522 8.522 0 01-2.82-1.93 8.695 8.695 0 01-1.82-2.84c-.43-1.08-.64-2.22-.64-3.43s.21-2.36.64-3.45a8.665 8.665 0 011.82-2.87c.78-.83 1.72-1.47 2.82-1.95 1.1-.47 2.33-.71 3.7-.71 1.34 0 2.56.24 3.65.73 1.09.48 2.02 1.13 2.79 1.93s1.36 1.74 1.77 2.8c.41 1.07.61 2.18.61 3.35a8.621 8.621 0 01-.1 1.32H194.6c.07.77.25 1.46.54 2.08.3.62.68 1.15 1.15 1.6s1.01.8 1.62 1.04c.6.24 1.24.36 1.9.36.48 0 .96-.06 1.44-.18.47-.12.91-.3 1.3-.53.4-.23.75-.51 1.06-.84.31-.33.55-.69.73-1.09l3.1.89c-.59 1.3-1.58 2.36-2.95 3.18-1.4.84-3 1.25-4.82 1.25zm5.24-10.26a5.97 5.97 0 00-.54-2.01c-.3-.62-.68-1.14-1.14-1.57-.46-.43-1-.76-1.62-1.01-.62-.24-1.27-.36-1.95-.36-.68 0-1.33.12-1.93.36-.61.24-1.14.58-1.6 1.01s-.84.95-1.12 1.57a6.09 6.09 0 00-.53 2.01h10.43zm29.27 6.66v3.27h-12.61v-3.27h4.69v-11.52c-.2.26-.51.54-.92.83a9.7 9.7 0 01-1.39.79c-.51.24-1.04.45-1.58.61s-1.03.25-1.45.25v-3.4c.44 0 .95-.13 1.53-.4.58-.26 1.14-.57 1.68-.92.54-.35 1.01-.7 1.42-1.06.41-.35.64-.6.71-.76h3.73v15.58h4.19zm2.91-7.45c0-1.12.22-2.18.66-3.17.44-.99 1.04-1.85 1.8-2.59.76-.74 1.66-1.31 2.69-1.73s2.15-.63 3.33-.63c1.28 0 2.44.24 3.5.71s1.96 1.16 2.71 2.05c.75.89 1.33 1.98 1.73 3.27s.61 2.74.61 4.37c0 2.24-.21 4.21-.64 5.89-.43 1.68-1.03 3.09-1.8 4.22s-1.71 1.99-2.82 2.56c-1.11.57-2.34.86-3.68.86-1.5 0-2.87-.34-4.11-1.02-1.24-.68-2.25-1.65-3.02-2.9l2.14-2.24a5.74 5.74 0 002.1 2.19c.89.54 1.88.81 2.95.81 1.65 0 2.96-.7 3.94-2.1.98-1.4 1.49-3.36 1.53-5.89-.46.99-1.18 1.77-2.16 2.34-.98.57-2.1.86-3.35.86-1.14 0-2.21-.2-3.2-.61-.99-.41-1.85-.96-2.57-1.67-.73-.7-1.3-1.53-1.72-2.49s-.62-2-.62-3.09zm8.45-5.02c-.68 0-1.33.13-1.93.4-.61.26-1.13.63-1.58 1.09-.45.46-.81 1-1.07 1.6-.26.61-.4 1.25-.4 1.93s.13 1.32.4 1.91a5.072 5.072 0 002.65 2.64c.6.26 1.25.4 1.93.4.68 0 1.33-.13 1.93-.4a5.072 5.072 0 002.65-2.64c.26-.59.4-1.23.4-1.91s-.13-1.33-.4-1.93c-.26-.61-.62-1.14-1.07-1.6-.45-.46-.98-.83-1.58-1.09a4.7 4.7 0 00-1.93-.4zm29.43 6.07c0 1.45-.21 2.79-.64 4.01-.43 1.22-1.02 2.28-1.78 3.17-.76.89-1.65 1.58-2.67 2.08-1.02.49-2.14.74-3.35.74s-2.33-.25-3.37-.74a8.05 8.05 0 01-2.67-2.08c-.75-.89-1.34-1.95-1.77-3.17-.43-1.22-.64-2.56-.64-4.01s.21-2.79.64-4.01c.43-1.22 1.02-2.28 1.77-3.17.75-.89 1.64-1.59 2.67-2.1s2.16-.76 3.37-.76 2.33.25 3.35.76 1.91 1.21 2.67 2.1c.76.89 1.35 1.95 1.78 3.17.43 1.22.64 2.56.64 4.01zm-3.69 0c0-.99-.12-1.89-.35-2.71-.23-.81-.56-1.52-.99-2.11a4.69 4.69 0 00-1.52-1.37c-.58-.32-1.22-.48-1.9-.48-.73 0-1.38.16-1.96.48-.58.32-1.09.78-1.52 1.37-.43.59-.76 1.3-.99 2.11-.23.81-.35 1.72-.35 2.71s.12 1.89.35 2.71c.23.81.56 1.51.99 2.1s.93 1.03 1.52 1.35c.58.32 1.24.48 1.96.48.68 0 1.31-.16 1.9-.48.58-.32 1.09-.77 1.52-1.35.43-.58.76-1.28.99-2.1.23-.82.35-1.72.35-2.71zm7.68 9.67c0-.92.08-1.78.23-2.57s.43-1.53.83-2.23c.4-.69.93-1.35 1.62-1.98.68-.63 1.56-1.24 2.64-1.83.77-.42 1.5-.8 2.18-1.15.68-.35 1.28-.7 1.8-1.04.52-.34.93-.7 1.24-1.09.31-.38.46-.83.46-1.34 0-.7-.3-1.34-.91-1.9-.61-.56-1.48-.84-2.62-.84-.59 0-1.14.08-1.63.25s-.95.37-1.35.63-.76.53-1.07.84c-.31.31-.58.61-.83.89l-2.31-2.67c.22-.24.57-.54 1.04-.91.47-.36 1.04-.71 1.72-1.04.67-.33 1.44-.61 2.29-.84.86-.23 1.79-.35 2.81-.35 1.06 0 2.01.14 2.85.41.85.28 1.56.66 2.14 1.14.58.48 1.03 1.06 1.34 1.73.31.67.46 1.39.46 2.16 0 .81-.17 1.54-.5 2.18-.33.64-.74 1.2-1.22 1.68s-1.01.9-1.58 1.24c-.57.34-1.1.63-1.58.88-.46.22-.98.48-1.57.78s-1.15.64-1.7 1.02-1.04.8-1.49 1.24-.75.92-.92 1.45h10.92v3.27h-15.29zM43.39 136.87V92.85h19.16c1.98 0 3.81.41 5.49 1.24 1.67.83 3.11 1.91 4.31 3.25 1.2 1.34 2.14 2.87 2.82 4.59.68 1.72 1.02 3.46 1.02 5.24a14.817 14.817 0 01-2.36 8.06c-.75 1.16-1.65 2.16-2.73 3.01a11.17 11.17 0 01-3.53 1.89l10.35 16.74h-7.87l-9.55-15.31H50.33v15.31h-6.94zm6.94-21.45h12.15c.99 0 1.89-.22 2.7-.65.81-.43 1.5-1.03 2.08-1.8.58-.76 1.03-1.64 1.36-2.64.33-.99.5-2.05.5-3.16 0-1.12-.2-2.17-.59-3.16a8.97 8.97 0 00-1.55-2.6 7.587 7.587 0 00-2.23-1.77c-.85-.43-1.73-.65-2.63-.65H50.33v16.43zm32.88 21.45V92.85h6.94v44.02h-6.94zm22.71-31v31h-6.94V92.85h5.46l25.17 31.74V92.91h7.01v43.96h-5.77l-24.93-31zm70.52 25.54c-3.72 3.84-8 5.77-12.83 5.77-2.94 0-5.66-.61-8.18-1.83a21.103 21.103 0 01-6.57-4.93c-1.86-2.07-3.32-4.46-4.37-7.19a23.632 23.632 0 01-1.58-8.56c0-2.98.53-5.81 1.58-8.49 1.05-2.69 2.51-5.04 4.37-7.07 1.86-2.02 4.07-3.63 6.63-4.81 2.56-1.18 5.35-1.77 8.37-1.77 4.22 0 7.75.88 10.6 2.64 2.85 1.76 5 4.08 6.45 6.97l-5.33 3.84c-1.2-2.4-2.85-4.19-4.96-5.39-2.11-1.2-4.42-1.8-6.94-1.8-2.07 0-3.95.44-5.64 1.33-1.7.89-3.14 2.07-4.34 3.53-1.2 1.47-2.12 3.17-2.76 5.12-.64 1.94-.96 3.97-.96 6.08 0 2.23.36 4.32 1.08 6.26.72 1.94 1.71 3.64 2.98 5.08 1.26 1.45 2.76 2.59 4.5 3.44 1.74.85 3.62 1.27 5.64 1.27 2.23 0 4.37-.52 6.42-1.55s4-2.67 5.86-4.9v-4.71h-9.24v-5.15h15.07v22.26h-5.83v-5.44zm11.53-24.98l1.3-7.32h-2.17v-7.69h6.7v7.75l-2.05 7.25h-3.78zm39.66-3.23c-.41-.45-1.01-.94-1.8-1.46s-1.71-1-2.76-1.46c-1.05-.45-2.21-.83-3.47-1.12a17.22 17.22 0 00-3.88-.43c-2.93 0-5.09.54-6.48 1.61-1.39 1.08-2.08 2.56-2.08 4.46 0 1.08.22 1.95.65 2.63.43.68 1.1 1.28 2.02 1.8.91.52 2.05.97 3.41 1.36 1.36.39 2.95.82 4.77 1.27 2.23.54 4.25 1.14 6.04 1.8 1.8.66 3.32 1.47 4.56 2.42 1.24.95 2.2 2.12 2.88 3.5s1.02 3.07 1.02 5.05c0 2.23-.42 4.15-1.27 5.77-.85 1.61-2 2.92-3.47 3.94-1.47 1.01-3.17 1.76-5.12 2.23-1.94.47-4.03.71-6.26.71-3.35 0-6.58-.51-9.7-1.52-3.12-1.01-5.94-2.49-8.46-4.43l3.16-5.95c.54.54 1.31 1.14 2.32 1.8 1.01.66 2.19 1.27 3.53 1.83 1.34.56 2.8 1.03 4.37 1.43 1.57.39 3.2.59 4.9.59 2.73 0 4.84-.47 6.32-1.43 1.49-.95 2.23-2.36 2.23-4.22 0-1.12-.28-2.05-.84-2.79s-1.35-1.39-2.39-1.95c-1.03-.56-2.29-1.06-3.78-1.52s-3.18-.93-5.08-1.43c-2.19-.58-4.1-1.19-5.74-1.83-1.63-.64-2.99-1.42-4.06-2.33a9.08 9.08 0 01-2.45-3.19c-.56-1.22-.84-2.7-.84-4.43 0-2.15.41-4.06 1.24-5.74.83-1.67 1.95-3.08 3.38-4.22 1.43-1.14 3.11-1.99 5.05-2.57 1.94-.58 4.05-.87 6.32-.87 2.98 0 5.72.48 8.25 1.43 2.52.95 4.73 2.13 6.63 3.53l-3.12 5.73zm57.35 27.53v6.14h-30.19V92.85h29.64v6.14h-22.69v12.52h19.65v5.77h-19.65v13.45h23.24zm12.65-24.86v31h-6.94V92.85h5.46l25.17 31.74V92.91h7.01v43.96h-5.77l-24.93-31zm39.57 31V92.85h15.62c3.55 0 6.67.58 9.33 1.74 2.67 1.16 4.9 2.73 6.7 4.71 1.8 1.98 3.15 4.31 4.06 6.98.91 2.67 1.36 5.51 1.36 8.53 0 3.35-.51 6.38-1.52 9.08s-2.45 5.02-4.31 6.94-4.11 3.41-6.76 4.46c-2.65 1.05-5.6 1.58-8.87 1.58H337.2zm30.01-22.07c0-2.31-.32-4.44-.96-6.39-.64-1.94-1.58-3.61-2.82-4.99-1.24-1.38-2.75-2.47-4.53-3.25-1.78-.78-3.8-1.18-6.08-1.18h-8.68v31.74h8.68c2.31 0 4.37-.4 6.17-1.21s3.31-1.92 4.53-3.35c1.22-1.43 2.14-3.11 2.76-5.05.62-1.94.93-4.05.93-6.32z"></path>
  </symbol>
  <symbol version="1.0" xmlns="http://www.w3.org/2000/svg" viewBox="0 0 512 512" id="close">
    <path d="M13.2 1.1C6.4 3.1 0 12.2 0 20c0 8.7-4.3 4.1 114.8 123.2L227.5 256 114.8 368.8C11.1 472.5 2.1 481.9 1 486c-4.2 15.9 9.1 29.2 25 25 4.1-1.1 13.5-10.1 117.3-113.8L256 284.5l112.8 112.7C472.5 500.9 481.9 509.9 486 511c15.9 4.2 29.2-9.1 25-25-1.1-4.1-10.1-13.5-113.8-117.2L284.5 256l112.7-112.8C500.9 39.5 509.9 30.1 511 26c4.2-15.9-9.1-29.2-25-25-4.1 1.1-13.5 10.1-117.2 113.8L256 227.5 143.3 114.8C45.5 17.2 30 2 26.5 1.1c-4.7-1.3-8.8-1.3-13.3 0z"></path>
  </symbol>
</svg>