<svg width="0" height="0" class="hidden">
  <symbol version="1.0" xmlns="http://www.w3.org/2000/svg" viewBox="0 0 512 512" id="close">
    <path d="M13.2 1.1C6.4 3.1 0 12.2 0 20c0 8.7-4.3 4.1 114.8 123.2L227.5 256 114.8 368.8C11.1 472.5 2.1 481.9 1 486c-4.2 15.9 9.1 29.2 25 25 4.1-1.1 13.5-10.1 117.3-113.8L256 284.5l112.8 112.7C472.5 500.9 481.9 509.9 486 511c15.9 4.2 29.2-9.1 25-25-1.1-4.1-10.1-13.5-113.8-117.2L284.5 256l112.7-112.8C500.9 39.5 509.9 30.1 511 26c4.2-15.9-9.1-29.2-25-25-4.1 1.1-13.5 10.1-117.2 113.8L256 227.5 143.3 114.8C45.5 17.2 30 2 26.5 1.1c-4.7-1.3-8.8-1.3-13.3 0z"></path>
  </symbol>
  <symbol version="1.0" xmlns="http://www.w3.org/2000/svg" viewBox="0 0 512 512" id="compare">
    <path d="M247.6 1.9c-6.4 4.3-6.6 5-6.6 33.3V61H125.3C13.5 61 9.4 61.1 6.6 62.9c-1.5 1-3.7 3.2-4.7 4.7C.1 70.4 0 75.3 0 226c0 150.7.1 155.6 1.9 158.4 1 1.5 3.2 3.7 4.7 4.7 2.8 1.8 6.9 1.9 118.7 1.9H241v25.7c0 28.4.2 29.1 6.6 33.4 3.9 2.6 12.9 2.6 16.8 0 6.4-4.3 6.6-5 6.6-33.4V391h115.8c111.7 0 115.8-.1 118.6-1.9 1.5-1 3.7-3.2 4.7-4.7 1.8-2.8 1.9-7.7 1.9-158.4 0-150.7-.1-155.6-1.9-158.4-1-1.5-3.2-3.7-4.7-4.7-2.8-1.8-6.9-1.9-118.6-1.9H271V35.2c0-23.5-.2-25.9-1.9-28.6C266 2 262.2 0 256 0c-3.7 0-6.4.6-8.4 1.9zM241 226v135H30V91h211v135zm241 0v135H271V91h211v135z"></path>
    <path d="M117.2 122.9c-4 1-11.2 3.8-16 6.1-7.2 3.6-10.4 6-18.3 13.9-8.3 8.3-10.2 10.9-14.2 19.1-6.6 13.8-8 20.9-7.5 37.2.6 14.9 2.6 22.3 9.4 34.7 5.7 10.2 19.7 23.6 30.4 28.9 11.7 5.8 21.8 8.2 35 8.2s23.2-2.3 35-8.2c6.9-3.4 10.3-6 18-13.8 7.8-7.7 10.4-11.1 13.8-18 5.9-11.9 8.2-21.8 8.2-35.4 0-13.6-2.2-22.6-8.2-34.6-3.4-6.9-6.1-10.3-13.8-18-7.7-7.8-11.1-10.4-18-13.8-12-6-21.8-8.2-35.4-8.1-7.1 0-13.8.7-18.4 1.8zm37.1 32.8c9 4.3 17.7 12.9 22 22 3 6.4 3.2 7.4 3.2 18.3s-.2 11.9-3.2 18.3c-2.1 4.4-5.3 8.9-9.2 12.8-3.9 3.9-8.4 7.1-12.8 9.2-6.4 3-7.4 3.2-18.3 3.2s-11.9-.2-18.3-3.2c-9.1-4.3-17.7-12.9-22-22-3-6.4-3.2-7.4-3.2-18.3s.2-11.9 3.2-18.3c3.7-7.8 12.5-17.2 19.3-20.7 8.1-4.2 12-5 22.5-4.7 8.9.2 10.8.6 16.8 3.4zM67.6 302.9C63 306 61 309.8 61 316c0 6.2 2 10 6.6 13.1 2.8 1.8 5.9 1.9 68.4 1.9 62.5 0 65.6-.1 68.4-1.9 4.6-3.1 6.6-6.9 6.6-13.1 0-6.2-2-10-6.6-13.1-2.8-1.8-5.9-1.9-68.4-1.9-62.5 0-65.6.1-68.4 1.9zm240-180c-1.5 1-3.7 3.2-4.7 4.7-1.8 2.8-1.9 5.9-1.9 68.4 0 62.5.1 65.6 1.9 68.4 1 1.5 3.2 3.7 4.7 4.7 2.8 1.8 5.9 1.9 68.9 1.9 63 0 66.1-.1 68.9-1.9 1.5-1 3.7-3.2 4.7-4.7 1.8-2.8 1.9-5.9 1.9-68.4 0-62.5-.1-65.6-1.9-68.4-1-1.5-3.2-3.7-4.7-4.7-2.8-1.8-5.9-1.9-68.9-1.9-63 0-66.1.1-68.9 1.9zM422 196v45h-91v-90h91v45zM307.6 302.9c-4.6 3.1-6.6 6.9-6.6 13.1 0 6.2 2 10 6.6 13.1 2.8 1.8 5.9 1.9 68.9 1.9 63 0 66.1-.1 68.9-1.9 4.6-3.1 6.6-6.9 6.6-13.1 0-6.2-2-10-6.6-13.1-2.8-1.8-5.9-1.9-68.9-1.9-63 0-66.1.1-68.9 1.9zm-210 121C93 427 91 430.8 91 437c0 6.8.6 7.8 12.9 20.2l9.6 9.8-9.6 9.7C91.6 489.2 91 490.2 91 497c0 9.6 5.4 15 15 15 6.8 0 7.8-.6 20.3-12.9l9.7-9.6 9.8 9.6c12.4 12.3 13.4 12.9 20.2 12.9 9.6 0 15-5.4 15-15 0-6.8-.6-7.8-12.9-20.3l-9.6-9.7 9.6-9.8c12.3-12.4 12.9-13.4 12.9-20.2 0-9.6-5.4-15-15-15-6.8 0-7.8.6-20.2 12.9l-9.8 9.6-9.7-9.6c-5.4-5.3-10.9-10.4-12.3-11.3-3.5-2.3-12.7-2.1-16.4.3zm315.4-.3c-1.4.9-13.6 12.7-27.2 26.3L361 474.5l-9.7-9.6C338.8 452.6 337.8 452 331 452c-6.2 0-10 2-13.1 6.6-2.4 3.7-2.6 12.9-.3 16.4 2.5 3.7 29.3 30.7 33.8 34.1 3.2 2.4 4.9 2.9 9.6 2.9 4.7 0 6.4-.5 9.6-2.9 4.6-3.4 61.4-60.5 63.8-64.1 1-1.5 1.6-4.5 1.6-8 0-6.2-2-10-6.6-13.1-3.7-2.4-12.9-2.6-16.4-.3z"></path>
  </symbol>
  <symbol version="1.0" xmlns="http://www.w3.org/2000/svg" viewBox="0 0 512 512" id="contect">
    <path d="M120.2 15.2c-.9.9-1.2 17.6-1.2 69V152l11.2 16.8c15.1 22.5 16.7 27.4 13.3 38.8-2.1 7.2-5.6 10.7-25 25.8-9.6 7.5-17.9 14.5-18.5 15.6-.5 1-1 2.9-1 4.1 0 4.7 16.1 31.1 28.1 46.2l6.2 7.7h186.6c148.4 0 187.1-.3 189.1-1.3l2.5-1.3.3-143.2c.1-97.7-.1-143.9-.8-145.3-1.1-1.9-4.1-1.9-195.3-1.9-149.8 0-194.6.3-195.5 1.2zM155 37.7c1.4.9 35.9 27 76.7 58 40.8 30.9 75.6 57.1 77.5 58.3 3.7 2.2 7.9 2.6 11.1.8 1.2-.6 36.4-27 78.1-58.7 41.8-31.7 76.9-58.1 78-58.8 3.6-2.1 7.5-1.5 10.7 1.6 4 4 3.9 8.1-.3 12.5C482.7 55.7 335.1 167.5 329 171c-3.9 2.2-5.7 2.5-13.5 2.5-7.4 0-9.7-.4-13.2-2.3-4.9-2.6-156.9-117.6-159.5-120.7-2.8-3.2-2.3-8.2 1.1-11.6 3.4-3.3 7.4-3.8 11.1-1.2zm95.8 131.9c4.1 4.7 3.1 8.4-4.6 16.6-3.8 4-25.8 27.7-49 52.5-29.3 31.3-43 45.3-44.5 45.5-4.2.3-6.1-.3-8.3-2.3-2.8-2.6-3.7-6-2.4-9.3 1.2-3.1 96.5-105.3 98.8-106 3.3-.9 7.7.4 10 3zm142.6-.7c1.7 1.4 77.1 81.9 90.9 96.9 4.3 4.7 5.7 7.1 5.7 9.3 0 6.3-6 10.8-11.9 8.8-1.8-.6-19.4-18.7-48.2-49.6-25-26.7-46.6-50.1-48.1-52.1-3.6-4.5-3.8-10-.5-12.9 3.8-3.6 8.3-3.7 12.1-.4z"></path>
    <path d="M58 104.8c-3.5 1.1-40.5 23.9-44.3 27.3-9.3 8.1-13 21.2-13.1 45.4 0 13 .4 18.1 2.3 27C14.4 259.4 55.2 321.4 123.7 388c28.5 27.8 53.3 48.3 79.3 65.9 26.1 17.5 46.9 28.2 69.3 35.6 20.5 6.7 28.2 8 49.2 7.9 25.1-.1 34.5-2.7 44.3-12.4 3.9-3.9 27.1-42.2 27.9-46 .3-1.5 0-3.7-.7-4.9-.6-1.2-21.4-15.7-46.1-32.1-48.6-32.5-49.3-32.8-54.2-27.8-1.2 1.3-8.2 9.9-15.4 19.3-7.3 9.3-14.8 18.1-16.8 19.4-3.6 2.4-12.1 5.1-16.2 5.1-4 0-11-2.9-22-9.2-24.3-13.7-44.1-29.5-72.9-58.3-28-27.9-43.5-46.6-56.2-68C83 265.2 81 260.5 81 253.2c0-12.3 2.8-16 25.2-33.4 9.5-7.4 18-14.3 18.8-15.2 3.7-4.6 2.8-6.3-28-52.6-16.1-24.2-29.9-44.5-30.6-45.1-1.7-1.4-6.6-2.7-8.4-2.1z"></path>
  </symbol>
  <symbol version="1.0" xmlns="http://www.w3.org/2000/svg" viewBox="0 0 512 512" id="delete">
    <path d="M201.4 1.2c-5.9 1.9-12.7 8-15.9 14.3-2.8 5.4-3 6.8-3.3 18.2l-.4 12.3H214V31h84v15h32V34.7c0-7.7-.5-12.8-1.6-16-1.9-5.7-8.3-13.1-13.8-16C310.5.5 310.1.5 257.5.3c-33.9-.1-54.1.2-56.1.9zM77 78.2c-2.5 1.3-5.5 3.8-6.7 5.6-3.1 4.7-13.3 35.9-13.3 40.7.1 4.9 1.7 8 5.6 10.6 2.8 1.8 6.8 1.9 193.5 1.9h190.6l3.4-2.3c2.3-1.5 3.8-3.7 4.8-6.6 1.4-4.3 1.3-4.7-4.8-23.2-6.7-20.4-8.7-23.9-15.6-27-3.8-1.8-11.4-1.9-178.5-1.9H81.4L77 78.2zm29.3 89.9c-3.9 1.1-8 5.9-8.8 10.2-.5 2.7 22.3 292.7 24 305.7 1.5 11.3 9.9 22.2 20.1 25.9 5.4 2.1 6.8 2.1 114.2 2.1 70.9 0 110-.4 112.4-1 9.2-2.6 18.6-12 21.3-21.3 1.3-4.9 25.5-296.6 25.5-308.5 0-4-.5-5.7-2.7-8.3-5.3-6.3 4.6-5.9-156-5.8-85.7 0-148.1.5-150 1zm68.5 39.2c1.3 1.2 3 3.4 3.8 4.9 1.6 3.1 17.2 251.5 16.1 256-2.4 9.2-14 13.9-22.1 8.8-4.3-2.6-6.5-6.9-7.2-13.7-.3-3.2-3.8-60-7.9-126.3-7.2-118-7.4-120.5-5.6-124.5 2.1-4.7 3.8-6.3 8.7-8 4.6-1.5 10.9-.3 14.2 2.8zm90.9-.1c5.6 5.2 5.3-2.7 5.3 134.5 0 124.8 0 126.9-2 130.1-5.9 9.6-19.7 9.6-25.5 0-2-3.3-2-5.1-2-130.3v-127l2.2-3.5c5-7.9 15.6-9.8 22-3.8zm90.3-.4c1.4 1 3.3 3.5 4.4 5.6 1.8 3.7 1.7 5.2-5.6 130-8.2 139.1-7.3 130.3-14.4 134.6-8.1 5.1-19.7.4-22.1-8.8-.4-1.5 2.6-58.7 6.6-127.2 7.9-135 7.4-130.6 13.5-134.5 5.6-3.7 12.3-3.5 17.6.3z"></path>
  </symbol>
  <symbol version="1.0" xmlns="http://www.w3.org/2000/svg" viewBox="0 0 512 512" id="downarrow">
    <path d="M24.5 111.3c-9 3-17.1 10.2-21.6 19.2C.8 134.8.5 136.9.5 146c0 9.6.2 11 2.8 16 2.4 4.5 24.2 26.8 116.5 119.2 94.4 94.5 114.7 114.3 119.7 117 5.7 3.1 6.5 3.3 16.5 3.3s10.8-.2 16.5-3.3c5.1-2.7 25.2-22.4 120.1-117.5 90.5-90.6 114.5-115.2 116.5-119.2 2.1-4.3 2.4-6.4 2.4-15.5 0-9.6-.3-11-2.9-16.2-3.5-6.9-9.3-12.7-16.6-16.5-5-2.5-6.5-2.8-15.5-2.8-17.5 0-7.5-8.7-120.7 104.4L256 314.5l-99.7-99.6C44.2 103.1 53.1 110.8 37 110.3c-5-.1-10.1.3-12.5 1z"></path>
  </symbol>
  <symbol xmlns="http://www.w3.org/2000/svg" viewBox="0 0 593.3 529.1" id="house">
    <path d="M363.6 529.1V241.4l114.3-140.1 115.4 140.1v287.7l-73.1-.6-.4-222.4h-78.9l.1 223zM0 213.2L129.6 47.4V0h90.8v47.4h155.7V0h86.5v74.3L342.4 213.2zm.4 314.4h333V241.4H.4v286.2zm285.1-99.2h-37v-40.2h37v40.2zm-37.1-90.6h37v40.1h-37v-40.1zm-14.8 90.4h-37V388h37v40.2zm-37.1-90.7h37v40.1h-37v-40.1zm-54.6 90.2h-37v-40.1h37v40.1zm-37.1-90.6h37v40.1h-37v-40.1zM90 427.4H53v-40.1h37v40.1zm-37.1-90.6h37v40.1h-37v-40.1z"></path>
  </symbol>
  <symbol version="1.0" xmlns="http://www.w3.org/2000/svg" viewBox="0 0 512 512" id="literature">
    <path d="M442.5 2.5c-65.6 15.2-121 46.5-157.2 88.9-30.4 35.6-52.4 81.4-64.7 135.1-.6 2.3 9.8-7.5 47.1-44.7 40.6-40.4 48.4-47.8 51.8-48.7 11.2-3 21.4 7.1 18.4 18.4-.9 3.4-7.7 10.7-48.7 51.8-37.2 37.3-47 47.7-44.7 47.1 59-13.6 108.1-38.5 145.2-73.7 9.3-8.9 12.8-14.1 11.7-17.4-.4-1-5-6.2-10.2-11.5-6.5-6.6-9.1-9.9-8.1-10.2.8-.3 10.9-2.4 22.4-4.6 15.4-3.1 21.6-4.7 23.1-6.2 3.2-2.9 18.4-33.3 24.7-49.3 7.9-20.1 17.7-55.2 17.7-63.2 0-4.1-4-10.3-8-12.4-4.4-2.4-8.2-2.3-20.5.6zM30.6 23.1c-6.2 1.5-15.3 6.8-19.7 11.6-2.2 2.4-5.5 7.4-7.2 11.1L.5 52.5.2 193.3C.1 270.8.3 334 .7 333.8 22.1 323 26.6 322 57 322h23V178c0-142.4 0-144.1-2-148-3.6-7-7.1-8-26.7-7.9-9.2.1-18.5.5-20.7 1z"></path>
    <path d="M110 211c0 127.3 0 129.1-2 133-3.8 7.4-4.2 7.4-43 8l-34.5.5-6.7 3.2c-9.3 4.4-15.1 10-19.6 19.1C.7 382 .5 382.9.5 392s.2 10 3.7 17.2c4.5 9.1 10.3 14.7 19.6 19.1l6.7 3.2 219 .5 219 .5 5.9 2.3c19.7 7.4 33.6 23.8 36.9 43.2.2 1.4.4-82.6.3-186.5l-.1-189-2.2-4.1c-5-9.3-13.3-15.4-21.6-15.7l-4-.2-3.2 8.1c-6.9 17.6-20.6 44.5-27.1 53.5-3.6 5-11.7 11-17.5 13-3.5 1.2-3.6 1.3-4.7 8.6-1.8 11.4-4.8 16.2-19.1 30.4-18.9 18.8-35 30.9-60.7 45.6-34 19.4-82 36.1-119.5 41.4-7.2 1.1-9.5 1-14.7-.2l-6.1-1.5-9.3 9.4c-10.7 10.8-15.7 13.7-22 12.7-5.4-1-10.6-5.8-11.8-11-1.7-7.2.1-10.7 11.4-22.4l10.2-10.6-1.5-5.9c-1.3-5.3-1.2-7.2.3-17.4 5.1-34.1 20.3-78.8 37.9-111.1 6.3-11.7 19.5-32.5 24.9-39.4l3-3.7H110v129z"></path>
    <path d="M392 481c0 22.1.9 25.4 8 29 3.7 1.9 5.8 2 32.3 2 32.6 0 35.2-.5 42.2-7.5 9.8-9.8 9.8-25.2 0-35-7.2-7.2-9-7.5-48.2-7.5H392v19z"></path>
  </symbol>
  <symbol version="1.0" xmlns="http://www.w3.org/2000/svg" viewBox="0 0 512 512" id="locations">
    <path d="M240.5.6c-1.6.2-6.6.9-11 1.5C171.8 9.6 119 44.8 88.3 96c-37.7 63.1-35.8 145.3 5 206.2 7.9 11.7 146.9 199.1 151.1 203.7 1.7 1.8 4.5 4 6.3 4.7 7.9 3.4 13.2.8 21.6-10.5 70.9-95.2 144.3-194.5 148.5-201.1 20.6-32.4 31.5-73.1 29.9-111-2.3-50.6-21.8-95.1-57.2-130.5-29.7-29.8-65.1-47.9-107.5-55C276.9 1 246.8-.3 240.5.6zm41.6 92.7c37 9.7 65.6 38.2 75.6 75.3 2.4 8.8 2.7 11.6 2.7 26.4 0 14.8-.3 17.6-2.7 26.4-10 37.1-38.3 65.3-75.6 75.4-8.5 2.3-11.5 2.6-26.1 2.6-14.8 0-17.6-.3-26.4-2.7-37.1-10-65.3-38.3-75.4-75.6-2.3-8.5-2.6-11.5-2.6-26.1 0-14.6.3-17.6 2.6-26.1 10.7-39.6 40.9-68.2 81-76.9 13.2-2.8 33.3-2.3 46.9 1.3z"></path>
  </symbol>
  <symbol version="1.0" xmlns="http://www.w3.org/2000/svg" viewBox="0 0 512 512" id="login">
    <path d="M170.5 33.7c-40.4 8.6-71.4 38-82.2 77.8-2.5 9.1-2.7 11.6-2.7 27.5.1 14.7.4 18.7 2.2 25.2 8.9 32.4 28.1 56.2 56.7 70.3 13.1 6.4 22.3 9.1 36.7 10.7 20.2 2.1 39-1.3 58.3-10.7 28.2-13.7 47.8-38 56.7-70.3 1.8-6.5 2.2-10.5 2.2-25.2 0-15.8-.3-18.4-2.7-27.5-10.8-40.1-42.1-69.5-82.9-77.9-9.9-2-32.6-2-42.3.1zm244.6 105.6c-1.9.7-4.8 2.9-6.5 5l-3.1 3.9-.3 26.9-.3 26.8-45.7.3-45.7.3-4.7 2.8c-6.9 4-10.3 10.2-10.3 18.7s3.4 14.7 10.3 18.7l4.7 2.8 45.7.3 45.7.3.3 26.9c.3 30.5.3 30.4 8.8 34.7 5.6 2.9 9.6 2.9 14.8.1 5.1-2.9 79.8-72.2 81.8-76 1.8-3.5 1.8-12.1 0-15.6-2-3.8-76.7-73.1-81.8-76-4.5-2.4-8.5-2.7-13.7-.9zM80.7 289.6c-40.4 8.7-71.5 40.2-79.3 80.2C.3 375.5 0 387.6 0 423.3c0 44.3.1 46.3 2 49.5 1.1 1.8 3.4 4.1 5.2 5.2 3.3 2 5.5 2 184.8 2s181.5 0 184.8-2c1.8-1.1 4.1-3.4 5.2-5.2 2-3.2 2-4.6 1.7-52.8l-.3-49.5-2.7-9c-11.3-37.3-40.4-64.2-78.1-71.9-10.9-2.3-211.3-2.2-221.9 0z"></path>
  </symbol>
  <symbol version="1.0" xmlns="http://www.w3.org/2000/svg" viewBox="0 0 512 512" id="menu">
    <path d="M9.3 78.6C3.1 82.3 0 88.1 0 96c0 8 3.1 13.8 9.4 17.5l4.3 2.5h484.6l4.3-2.5c6.3-3.7 9.4-9.5 9.4-17.5s-3.1-13.8-9.4-17.5l-4.3-2.5H13.5l-4.2 2.6zm0 160C3.1 242.3 0 248.1 0 256c0 8 3.1 13.8 9.4 17.5l4.3 2.5h484.6l4.3-2.5c6.3-3.7 9.4-9.5 9.4-17.5s-3.1-13.8-9.4-17.5l-4.3-2.5H13.5l-4.2 2.6zm0 160C3.1 402.3 0 408.1 0 416c0 8 3.1 13.8 9.4 17.5l4.3 2.5h484.6l4.3-2.5c6.3-3.7 9.4-9.5 9.4-17.5s-3.1-13.8-9.4-17.5l-4.3-2.5H13.5l-4.2 2.6z"></path>
  </symbol>
  <symbol version="1.0" xmlns="http://www.w3.org/2000/svg" viewBox="0 0 512 512" id="product">
    <path d="M246.5 1.4c-7.4 2.3-14 6.3-19.4 11.7-9.4 9.5-13.1 19.8-13.1 36.6V60h-24.7c-23 0-25 .2-28.1 2-1.8 1.1-4.1 3.4-5.2 5.2-2 3.2-2 5.3-2 98.3s0 95.1 2 98.3c1.1 1.8 3.4 4.1 5.2 5.2 3.2 2 5.3 2 98.3 2 93.5 0 95.1 0 98.3-2 1.9-1.2 4.1-3.8 5.2-6.3 1.9-4 2-7.6 2-97.2 0-89.6-.1-93.2-2-97.2-3.6-8-4.9-8.3-33.2-8.3H305v-7.8c0-11.4-1.5-19.6-4.8-26.5-7.7-16.4-22.7-25.8-41-25.6-4.8 0-10.5.6-12.7 1.3zM267 33.2c5.3 3.7 7 8 7 18V60h-29v-9c0-10.1 1.1-13.2 6-17.4 4.2-3.5 11.2-3.6 16-.4z"></path>
    <path d="M448.5 242.5c-18.2 4.6-33.7 15.4-43.2 30.1-2.1 3.3-14.6 26.7-27.8 51.9-27.1 51.9-29 54.7-41.9 61-10.5 5.2-16.7 5.6-74.8 5.3-49.6-.3-50.7-.3-53.5-2.4-9.5-7.1-9.5-17.7 0-24.8 2.8-2.1 4-2.1 59-2.6 47.7-.4 56.6-.7 58.5-2 2.8-1.8 6.5-8 16.1-26.5 7.9-15.1 8.8-19.3 5.7-25.2-3.4-6.7 1.6-6.4-95.4-6.1l-87.7.3-8 2.7c-16.1 5.5-17.1 6.4-70.3 59.3-27.2 26.9-50 50.2-50.8 51.7-1.8 3.5-1.8 11.1 0 14.6 1.6 2.9 76.5 77.9 80.6 80.6 1.5 1 4.5 1.6 8.1 1.6 4.6 0 6.3-.5 9.5-2.9 2.1-1.6 16.3-15.3 31.4-30.5l27.5-27.6h68.7c73.4 0 74.1 0 89.8-5.2 19.9-6.4 39.7-21.2 52.2-38.8 2.5-3.6 21-37.6 40.9-75.5l36.4-69V256c0-7.4-1.8-10.9-7.2-13.5-3.8-1.8-16.5-1.9-23.8 0z"></path>
  </symbol>
  <symbol version="1.0" xmlns="http://www.w3.org/2000/svg" viewBox="0 0 512 512" id="search">
    <path d="M177 1.1c-20.1 2.6-46.1 10.4-63.4 19.1C51.3 51.5 9.4 110.1 1 178c-1.5 12.5-1.2 40.5.5 52.9C7.9 275.1 28 315 59.7 346.6c61.2 60.9 153.4 76.4 230.9 38.8 14.1-6.8 28.7-16.1 40-25.4l7.1-5.9 75.9 76.1c41.7 41.8 77.7 77.3 79.8 78.9 12 8.9 24.6-3.7 15.7-15.7-1.6-2.1-37.1-38.1-78.9-79.8l-76.1-75.9 5.9-7.1c43.9-53.2 57.5-128.7 34.9-193.2-10.8-30.9-26-55.3-48.3-77.7C315 28 275.1 7.9 230.9 1.5 219.4-.1 188.4-.4 177 1.1zm55 23.3c38 6.6 71.6 24.1 98.7 51.4 34.1 34.3 52.3 78.4 52.3 126.7 0 49.2-18.1 92.7-52.9 127.6-28.4 28.3-61.5 45.1-101.7 51.3-13.3 2.1-38.5 2.1-51.8 0-53-8.2-97.7-37.5-126.9-83.1-12.6-19.6-22-44.8-25.8-69.3-1.8-10.8-1.8-41.8 0-52.5 8.7-54.4 39-99.6 86.3-128.8 18.5-11.5 44.6-20.7 66.3-23.6 4.4-.6 9.4-1.3 11-1.5 6-.9 36.2.4 44.5 1.8z"></path>
  </symbol>
  <symbol version="1.0" xmlns="http://www.w3.org/2000/svg" viewBox="0 0 512 512" id="servicess">
    <path d="M225.5 1.2c-44.9 5-92.3 24.8-128.9 53.6C86.4 62.8 65 84 56.5 94.6 33.1 123.5 15.8 158.4 7 194.2 1.3 217.4.5 225.1.5 255.5c0 18.1.5 31 1.3 36.5 9.1 58.8 34.1 107.6 76.3 148.5C126 487 187.5 512 253.7 512H271v-60.7l-19.2-.6c-26-.7-44-4.2-65.8-12.7-75.4-29.4-125-101.6-125-182 0-30.2 6.2-56.9 19.5-84.5 19.5-40.3 50.8-71.6 91-91 27-13 48.4-18.3 78.1-19.2 33.6-1.1 61.5 4.8 90.9 19.1 40.6 19.9 71.7 51 91 91.1 13.6 28.2 19.5 54.3 19.5 85.6V271h61v-17.3c0-28.8-3.8-52.3-13.1-80.2-8.6-25.9-24.1-54.6-41.6-76.8-8.4-10.7-35.5-37.2-46.4-45.4C374.7 24.2 332.2 7 288 1.5c-13.7-1.7-48.9-1.9-62.5-.3z"></path>
    <path d="M237.5 90.8c-39 3.8-81.6 26.1-107.1 56.3-22.6 26.6-34.6 54.3-39.8 91.6-.3 2.3-.3 2.3 15 2.3H121v30h-15.4c-15.3 0-15.3 0-15 2.2 3.1 22.1 7.8 38.5 15.9 55.3 16.3 33.8 43.2 60.7 77 77 16.8 8.1 33.2 12.8 55.3 15.9 2.2.3 2.2.3 2.2-15V391h30v-46.6c0-40.1-.2-46.5-1.4-46.1-8 3.1-20.8 2.7-29.1-.8l-3.9-1.6-15.1 15.1-15 15-10.3-10.2-10.2-10.3 15-15 15.1-15.1-1.7-3.9c-8-19.2 1.5-44.2 20.6-54.4l6-3.2V166h30v47.9l6 3.2c15.9 8.4 26 28.3 23 45-.6 3.3-1.4 6.7-1.7 7.5-.4 1.2 6 1.4 46.1 1.4H391v-30h15.4c15.3 0 15.3 0 15-2.3-3.1-22-7.8-38.4-15.9-55.2-24.4-50.5-72-84.8-128.2-92.3l-6.3-.9V121h-29.9l-.3-15.3-.3-15.2-3 .3z"></path>
    <path d="M250.5 241.5c-14 5-13.1 25.6 1.3 29.5 14.4 3.8 25.4-12.4 16.7-24.8-3.5-4.8-11.7-7-18-4.7zm75 60.7c-13.4 2.5-27.2 13-33.9 25.7-3.3 6.4-8.7 27.3-7.4 28.7 1.3 1.3 29.3 6.2 29.9 5.2.4-.6 1.2-4.1 1.8-8 1.8-11.2 5.7-17.1 13.3-20.3 9.2-3.8 19.1.3 24 9.9 2.7 5.4 2 10.6-2.9 20.9-5.6 11.5-32 48.2-51.5 71.5L291 445v25h27.3c14.9 0 37.7.3 50.5.7l23.2.6V440l-25.2-.1c-13.9-.1-26.3-.4-27.6-.8-2.2-.6-2-1.1 5.5-11.1 31.6-42 39.7-57.1 41-75.6 1-14-4.4-27.2-15.3-37.4-12.4-11.5-28-16-44.9-12.8z"></path>
    <path d="M417.1 363.9c-19.9 34.6-36.1 63.4-36.1 64 0 .8 12.6 1.1 41 1.1h41v42h31v-42h18v-31h-18v-97h-40.8l-36.1 62.9zM463 373v25h-14.6c-8 0-14.4-.4-14.2-.8.8-2 28.1-49.2 28.4-49.2.2 0 .4 11.2.4 25z"></path>
  </symbol>
  <symbol version="1.0" xmlns="http://www.w3.org/2000/svg" viewBox="0 0 512 512" id="user">
    <path d="M233.5 1.4c-17.5 3.4-30.8 8.1-44.1 15.8-33.4 19.1-55.5 48.5-65.2 86.8-2.5 9.7-2.7 12.1-2.7 31s.2 21.3 2.7 31c5.2 20.6 13.1 36.8 25.3 52.5 19 24.3 44 40.3 75.5 48.3 9.7 2.5 12.1 2.7 31 2.7s21.3-.2 31-2.7c31.5-8 56.5-24 75.5-48.3 12.2-15.7 20.1-31.9 25.3-52.5 2.5-9.7 2.7-12.1 2.7-31s-.2-21.3-2.7-31c-3.6-14-7.8-24.8-13.9-35.6-19-33.1-48.7-55.5-86.4-65.1C279 1.2 274.7.7 259 .4c-12.8-.2-20.7.1-25.5 1zm48 32.3c29.4 8.2 53.2 27.1 66.7 52.9 5.4 10.5 8 17.9 10.3 29.3 2.3 11.1 1.6 34.3-1.3 44.6-8.1 29.3-27 53.2-52.8 66.7-18.1 9.4-31.2 12.3-52.3 11.5-24.9-.9-44.3-8.3-63.2-24.1-17.9-15-30.6-36.6-35.4-60.5-2.3-11.1-1.6-34.3 1.3-44.6 10.9-39.6 40.9-68 81.2-77 9.4-2.1 36.1-1.4 45.5 1.2zM196 302c-42.6 7.2-77.2 25.1-107.7 55.6-35.9 36-57.3 86-57.3 133.7 0 12.3 1 15.1 6.6 18.8 2.8 1.8 9 1.9 218.4 1.9s215.6-.1 218.4-1.9c5.6-3.7 6.6-6.5 6.6-18.8 0-47.7-21.4-97.7-57.3-133.7-30.8-30.8-65.5-48.6-108.7-55.7-10.2-1.7-17-1.9-60-1.8-41.5.1-50 .4-59 1.9zm113.5 30.3c47.8 7.8 87.7 33.7 113.9 74 7 10.7 15.5 28.3 19 39.4 2.5 8.2 5.9 23.9 6.9 32l.5 4.3H62.2l.5-4.3c4.6-38.8 23.3-75.8 51.8-102.4 29.1-27.3 64.6-42.3 106-44.7 15.7-.9 80.4.3 89 1.7z"></path>
  </symbol>
  <symbol version="1.0" xmlns="http://www.w3.org/2000/svg" viewBox="0 0 512 512" id="about">
    <path d="M232.1 1C155.5 8.5 85.9 50.1 42.8 114.5c-15.6 23.3-30.2 57.2-36.2 84-4.9 21.9-6 32.4-6 57.5 0 25 1.1 35.5 6 57.5 7.3 32.8 24.2 68.9 45.2 96.7 40.9 54.1 100 88.8 169.2 99.5 16.1 2.4 53.9 2.4 70-.1 45.2-6.9 84-23.1 119.7-49.7 12.6-9.4 39.8-36.6 49.2-49.2 26.6-35.7 42.8-74.5 49.7-119.7 2.5-16.1 2.5-53.9.1-70-8.2-53-30.4-100.1-64.6-137.3-40.6-44-91.9-71.5-150.8-80.7-14.8-2.4-47.5-3.4-62.2-2zm64.1 101.7c18.5 8.8 26.4 29 18.3 47.1-3 6.5-11.3 14.8-18 17.8-19.5 8.9-44 1.1-53.3-17.1-3.7-7.3-4.3-19.7-1.1-28 2.8-7.5 11.4-16.5 19.2-20.1 10.8-4.9 24.1-4.8 34.9.3zm-38.7 103.7c23.4 5 35.9 21.9 34 46-1.1 13.5-2.3 18.9-11.5 51.8-11.8 41.6-13.3 48.3-13.4 59.8-.2 14.5 2.9 18.3 16.3 20 7.2.9 16.6-.2 24.9-3.1 3-1 5.6-1.9 5.7-1.9 1 0-4.4 17.4-5.6 18-3.7 2.1-34 12.9-39.4 14.1-7.6 1.6-26.2 1.6-34-.1-9.2-1.9-16.4-5.8-23.1-12.5-8.7-8.6-10.8-14.4-10.8-29.5.1-14.3 1.3-20.5 12-58.3 11-39.1 12.7-46.3 12.8-57.2.1-10.4-1.6-14.5-7.4-18-3-1.7-5.1-2-14-1.9-8.7 0-11.8.5-17.8 2.7l-7.2 2.6.5-2.2c.3-1.2 1.3-5.3 2.3-9.1l1.7-6.8 5.5-2.2c11-4.5 30.3-10.8 36.8-12.1 8.7-1.7 24.1-1.8 31.7-.1z"></path>
  </symbol>
  <symbol version="1.0" xmlns="http://www.w3.org/2000/svg" viewBox="0 0 512 512" id="blog">
    <path d="M34.5 1.4c-8.4 2.1-14.7 5.7-21.1 12.1C6.9 20 2.9 27.1 1.1 35.8.4 39.2 0 55.4 0 80.5V120h512V80.5c0-25.6-.4-41.3-1.1-44.7-3.7-17.2-17.6-31.1-34.7-34.7-8.1-1.7-434.9-1.4-441.7.3zM103 47c4.5 2.3 8 8 8 13s-3.5 10.7-8 13c-3.3 1.7-5.9 2-17.1 2-11.7 0-13.5-.2-17.1-2.2-10.1-5.7-10.2-19.4-.2-25.4 3.6-2.2 5-2.4 17.2-2.4 11.3 0 13.9.3 17.2 2zm80 0c4.5 2.3 8 8 8 13s-3.5 10.7-8 13c-3.3 1.7-5.9 2-17.1 2-11.7 0-13.5-.2-17.1-2.2-10.1-5.7-10.2-19.4-.2-25.4 3.6-2.2 5-2.4 17.2-2.4 11.3 0 13.9.3 17.2 2zm80 0c4.5 2.3 8 8 8 13s-3.5 10.7-8 13c-3.3 1.7-5.9 2-17.1 2-11.7 0-13.5-.2-17.1-2.2-10.1-5.7-10.2-19.4-.2-25.4 3.6-2.2 5-2.4 17.2-2.4 11.3 0 13.9.3 17.2 2zM0 310.5c0 115.8.3 161.9 1.1 165.7 3.7 17.2 17.5 31 34.7 34.7 7.5 1.6 432.8 1.6 440.4 0 17-3.6 31.1-17.8 34.7-34.7.8-3.8 1.1-52.1 1.1-165.7V150H0v160.5zm104-36.4c6.6 3.1 13.1 9.4 16.2 15.7 1.9 3.9 2.3 6.3 2.3 14.2 0 8.4-.3 10.2-2.6 14.7l-2.7 5.1 3.8 3.7c2.1 2.1 5.4 6.5 7.2 9.9 3.1 5.8 3.3 6.6 3.3 16.6 0 10.1-.1 10.8-3.4 16.8-4.3 7.8-11.4 14.4-18.9 17.4-5.2 2-7.7 2.2-28 2.6-19.5.3-22.6.2-24.8-1.3-5.4-3.5-5.5-4.1-5.2-60.6l.3-52.1 3.3-3 3.4-2.9 20.1.3c19.3.3 20.4.4 25.7 2.9zm65.7.4l2.3 2.6V371h29.2l2.9 2.9c3.1 3.1 3.9 8.3 1.9 12.2-2.3 4.3-5.8 4.9-26.2 4.9-21.5 0-23.3-.4-26-6-1.6-3.2-1.8-7.9-1.8-53.8 0-54 .1-55 5.1-58.6 3.4-2.5 9.7-1.5 12.6 1.9zm110.4-2.1c20.6 4.4 38.1 20.6 44.5 41.2 2.4 7.6 2.6 9.5 2.1 19.7-.6 13-2.7 20.4-8.9 29.8-16.1 25-48.1 34.6-74.8 22.6-41.5-18.6-47.8-75.7-11.2-102.7 14-10.4 31.4-14.2 48.3-10.6zm140.1 0c8 1.7 16.8 5.8 21.4 9.8 2.9 2.5 3.4 3.7 3.4 7.3 0 3.2-.6 4.8-2.6 6.9-3.8 3.8-8.5 3.8-14.9.1-9.7-5.6-20.9-6.8-31.8-3.5-14.4 4.5-25.5 17.4-27.5 32-2.8 20.1 8.8 38.3 28 44.1 8 2.5 17.5 2.2 24.1-.6 8.1-3.4 15.1-12 18.1-22.3l1.5-5.2h-10.5c-14.5 0-18.4-2.2-18.4-10.4 0-2.2.9-4.5 2.4-6.3l2.4-2.8 18.7-.3c20.9-.4 22.4 0 25.1 6.3 1.1 2.6 1.1 5.1.3 12.1-4.1 36-31.6 57.1-64.9 50-27.8-6-47.2-30.1-47.2-58.6 0-19.4 8.6-36.7 24-48 14-10.4 31.4-14.2 48.4-10.6z"></path>
    <path d="M71 304v13h11c12.1 0 15.2-.9 18.9-5.6 2.9-3.6 2.9-11.2 0-14.8-3.7-4.7-6.8-5.6-18.9-5.6H71v13zm0 50v17h13.8c11.2 0 14.4-.4 17.8-1.9 5.9-2.7 8.7-7.2 9.2-14.6.5-7.4-2.1-11.9-8.8-15.3-3.9-2-5.9-2.2-18.2-2.2H71v17zm184.3-61c-14.2 4.7-25.2 17.6-27.1 32-2.8 20.1 8.8 38.3 28 44.1 18.5 5.6 38.3-3.2 47-20.9 3.1-6.2 3.3-7.3 3.3-17.2 0-9.5-.3-11.1-2.9-16.8-3.8-8.2-13.2-17.1-21.3-20.2-8.2-3.2-19-3.6-27-1z"></path>
  </symbol>
  <symbol version="1.0" xmlns="http://www.w3.org/2000/svg" viewBox="0 0 512 512" id="cart">
    <path d="M6.6 32.9C2 36 0 39.8 0 46c0 6.2 2 10 6.6 13.1C9.3 60.9 12 61 51 61h41.5l26.8 120.8C134 248.2 146 302.9 146 303.5c0 .5-2.3 2.3-5.1 4-6.7 3.9-13.2 11.4-17.1 19.5-2.7 5.6-3.2 7.9-3.6 16.6-.3 7.9-.1 11.3 1.3 15.5 4.6 14.3 15.2 25.1 29.2 30 4.5 1.5 8.5 1.9 20.2 2h14.6l-5.2 1.9c-18.8 6.7-30.3 23.1-30.3 43 0 25.9 19.1 45 45 45s45-19.1 45-45c0-19.9-11.5-36.3-30.3-43-5.1-1.8-4-1.9 91.3-1.9s96.4.1 91.3 1.9c-18.8 6.7-30.3 23.1-30.3 43 0 25.9 19.1 45 45 45s45-19.1 45-45c0-20-11.5-36.3-30.4-43l-5.1-1.9h13c11-.1 13.4-.4 15.9-2 4.6-3.1 6.6-6.9 6.6-13.1 0-5.9-1.9-9.8-6.1-12.8-2.2-1.6-13-1.7-143.4-2.2l-141-.5-3.5-2.2c-9.5-5.9-9.4-19.8.2-25 3.1-1.7 10.7-1.8 143.9-2.1l140.7-.2 4.1-3.8 4.1-3.7 30.5-106.7c20.6-72 30.5-108.3 30.5-111.5 0-3.2-.7-5.7-2.2-8-4.7-6.8 10.6-6.3-193.7-6.3H131l-.5-2.3c-.3-1.2-2.7-12.1-5.4-24.2s-5.4-23.2-5.9-24.6c-.6-1.5-2.8-4-4.9-5.8l-3.8-3.1H60c-47.8 0-50.7.1-53.4 1.9zM476 122.2c-.1.7-11.5 41.1-25.4 89.8l-25.3 88.5-123.9.2-123.9.3-19.8-89.3c-10.9-49-19.7-89.5-19.7-90 0-.4 76.1-.7 169-.7 134.6 0 169 .3 169 1.2zM202.4 423.9c4.3 2.9 6.6 7 6.6 12.1 0 8-6 14-14 14s-14-6-14-14 6-14 14-14c2.7 0 5.6.8 7.4 1.9zm212 0c4.3 2.9 6.6 7 6.6 12.1 0 8-6 14-14 14s-14-6-14-14 6-14 14-14c2.7 0 5.6.8 7.4 1.9z"></path>
  </symbol>
</svg>