<?xml version="1.0" standalone="no"?>
<!DOCTYPE svg PUBLIC "-//W3C//DTD SVG 20010904//EN"
 "http://www.w3.org/TR/2001/REC-SVG-20010904/DTD/svg10.dtd">
<svg version="1.0" xmlns="http://www.w3.org/2000/svg"
 width="512.000000pt" height="512.000000pt" viewBox="0 0 512.000000 512.000000"
 preserveAspectRatio="xMidYMid meet">

<g transform="translate(0.000000,512.000000) scale(0.100000,-0.100000)"
fill="#000000" stroke="none">
<path d="M1405 4673 c-47 -24 -86 -64 -106 -108 -17 -36 -19 -70 -19 -382 l0
-343 -340 0 c-285 0 -347 -3 -378 -16 -47 -19 -88 -58 -113 -106 -19 -37 -19
-77 -17 -1596 l3 -1558 25 -37 c14 -21 43 -50 64 -65 l39 -27 1546 -3 c1094
-2 1557 0 1584 8 49 14 106 65 128 115 17 36 19 73 19 383 l0 342 343 0 c309
0 346 2 382 19 50 22 101 79 115 128 8 27 10 490 8 1584 l-3 1545 -25 37 c-14
21 -43 50 -64 65 l-39 27 -1561 2 c-1408 2 -1564 1 -1591 -14z m2863 -1685 l2
-1278 -1280 0 -1280 0 0 1280 0 1280 1278 -2 1277 -3 3 -1277z m-2988 -550 c0
-660 4 -985 11 -1012 14 -50 82 -118 135 -134 32 -9 273 -12 1013 -12 l971 0
0 -215 0 -215 -1277 2 -1278 3 -3 1278 -2 1277 215 0 215 0 0 -972z"/>
<path d="M2480 3824 c-78 -34 -130 -111 -130 -194 0 -88 38 -152 115 -193 39
-21 51 -22 492 -25 l452 -3 3 -452 c3 -441 4 -453 25 -492 11 -22 32 -50 45
-62 80 -75 224 -68 300 13 59 63 58 52 58 670 0 419 -3 577 -12 608 -16 53
-81 118 -134 134 -31 9 -188 12 -610 12 -486 -1 -574 -3 -604 -16z"/>
</g>
</svg>
